<?xml version="1.0" encoding="utf-8" standalone="no"?>
<!DOCTYPE svg PUBLIC "-//W3C//DTD SVG 1.1//EN"
  "http://www.w3.org/Graphics/SVG/1.1/DTD/svg11.dtd">
<!-- Created with matplotlib (https://matplotlib.org/) -->
<svg height="345.6pt" version="1.1" viewBox="0 0 460.8 345.6" width="460.8pt" xmlns="http://www.w3.org/2000/svg" xmlns:xlink="http://www.w3.org/1999/xlink">
 <defs>
  <style type="text/css">
*{stroke-linecap:butt;stroke-linejoin:round;white-space:pre;}
  </style>
 </defs>
 <g id="figure_1">
  <g id="patch_1">
   <path d="M 0 345.6 
L 460.8 345.6 
L 460.8 0 
L 0 0 
z
" style="fill:#ffffff;"/>
  </g>
  <g id="axes_1">
   <g id="patch_2">
    <path d="M 57.6 307.584 
L 414.72 307.584 
L 414.72 41.472 
L 57.6 41.472 
z
" style="fill:#ffffff;"/>
   </g>
   <g id="line2d_1">
    <path clip-path="url(#p8fdea5c044)" d="M 73.832727 93.915368 
L 74.853654 136.623849 
L 75.87458 137.394798 
L 77.916432 115.738935 
L 78.937358 53.568 
L 79.958285 132.931396 
L 82.000137 76.338391 
L 83.021063 76.429424 
L 84.04199 90.65824 
L 85.062916 169.621293 
L 86.083842 151.596341 
L 87.104768 180.173611 
L 88.125695 183.056988 
L 89.146621 196.497682 
L 90.167547 184.938391 
L 91.188473 188.708887 
L 92.2094 202.789642 
L 93.230326 200.61505 
L 94.251252 201.901659 
L 95.272178 194.594357 
L 96.293105 222.336328 
L 97.314031 202.600627 
L 98.334957 200.68828 
L 99.355883 197.353881 
L 100.37681 188.794745 
L 101.397736 197.988684 
L 102.418662 208.98439 
L 103.439588 209.178862 
L 104.460515 198.09531 
L 105.481441 205.644335 
L 106.502367 200.235124 
L 107.523293 209.998179 
L 108.54422 200.438166 
L 109.565146 208.424664 
L 110.586072 214.668004 
L 111.606998 206.843906 
L 112.627925 210.323973 
L 113.648851 220.028519 
L 114.669777 218.557484 
L 115.690703 219.169723 
L 116.71163 225.180181 
L 117.732556 241.315895 
L 119.774408 189.366166 
L 120.795334 233.320532 
L 121.816261 212.272916 
L 122.837187 218.557484 
L 123.858113 237.909491 
L 124.879039 197.956648 
L 125.899966 209.078733 
L 126.920892 199.883751 
L 127.941818 215.424878 
L 128.962744 210.210224 
L 129.983671 202.133739 
L 131.004597 237.802064 
L 132.025523 197.238279 
L 133.046449 187.920815 
L 134.067376 219.857117 
L 135.088302 211.298514 
L 136.109228 218.557484 
L 137.130154 219.216191 
L 138.151081 265.312943 
L 139.172007 249.198316 
L 140.192933 218.557484 
L 141.213859 245.658312 
L 142.234786 238.954031 
L 143.255712 207.056507 
L 144.276638 237.905189 
L 145.297564 235.549745 
L 146.318491 237.270041 
L 147.339417 236.474041 
L 148.360343 208.453896 
L 149.381269 236.738089 
L 150.402196 236.141066 
L 151.423122 214.245093 
L 152.444048 227.580115 
L 153.464974 218.557484 
L 154.485901 218.557484 
L 155.506827 234.094015 
L 156.527753 225.826968 
L 157.548679 236.187867 
L 158.569605 242.519854 
L 159.590532 227.039063 
L 160.611458 235.4815 
L 161.632384 228.80296 
L 162.65331 201.013326 
L 163.674237 190.989575 
L 164.695163 232.046021 
L 165.716089 230.794031 
L 166.737015 156.222296 
L 167.757942 242.558801 
L 168.778868 229.675483 
L 169.799794 193.16192 
L 170.82072 207.902353 
L 171.841647 218.557484 
L 172.862573 244.918049 
L 173.883499 212.054306 
L 174.904425 227.676154 
L 175.925352 223.537948 
L 176.946278 218.249552 
L 177.967204 243.58545 
L 178.98813 244.610423 
L 180.009057 212.903779 
L 181.029983 218.557484 
L 182.050909 207.072197 
L 183.071835 224.354514 
L 184.092762 213.363 
L 185.113688 197.405661 
L 186.134614 229.174596 
L 187.15554 244.103746 
L 188.176467 235.742552 
L 189.197393 210.432548 
L 190.218319 238.183783 
L 191.239245 254.874515 
L 192.260172 210.879281 
L 193.281098 237.040403 
L 194.302024 212.662153 
L 195.32295 215.345786 
L 196.343877 214.679165 
L 197.364803 246.598712 
L 198.385729 157.963699 
L 199.406655 218.557484 
L 200.427581 271.348865 
L 201.448508 201.112778 
L 202.469434 236.987268 
L 203.49036 227.08637 
L 204.511286 236.024997 
L 205.532213 250.864054 
L 206.553139 226.351085 
L 207.574065 286.911278 
L 208.594991 226.450415 
L 209.615918 210.358556 
L 210.636844 215.210859 
L 211.65777 231.538678 
L 212.678696 183.809454 
L 213.699623 243.844708 
L 214.720549 213.363012 
L 215.741475 216.439238 
L 216.762401 195.190731 
L 217.783328 236.153174 
L 218.804254 234.035583 
L 219.82518 201.566327 
L 220.846106 228.33541 
L 221.867033 195.842492 
L 222.887959 235.495105 
L 223.908885 239.612566 
L 224.929811 226.860594 
L 225.950738 250.777695 
L 226.971664 218.557484 
L 227.99259 251.385273 
L 229.013516 239.318835 
L 230.034443 218.557484 
L 231.055369 218.987716 
L 232.076295 236.57652 
L 233.097221 243.480887 
L 234.118148 218.557484 
L 235.139074 215.100267 
L 236.16 218.557484 
L 237.180926 215.802077 
L 238.201852 207.111292 
L 239.222779 248.916557 
L 240.243705 210.872198 
L 241.264631 216.371832 
L 242.285557 217.149883 
L 243.306484 227.3661 
L 244.32741 220.823158 
L 245.348336 227.73298 
L 246.369262 232.506637 
L 247.390189 228.626172 
L 248.411115 230.686157 
L 249.432041 225.188635 
L 250.452967 244.66641 
L 251.473894 222.344296 
L 252.49482 230.391349 
L 253.515746 256.247743 
L 254.536672 218.557484 
L 255.557599 200.116661 
L 256.578525 206.969549 
L 257.599451 256.163701 
L 258.620377 237.187588 
L 259.641304 236.337414 
L 260.66223 181.438129 
L 261.683156 209.362913 
L 262.704082 271.837944 
L 263.725009 218.557484 
L 264.745935 176.559099 
L 265.766861 218.557484 
L 266.787787 239.758415 
L 267.808714 238.586383 
L 268.82964 214.427159 
L 269.850566 215.84035 
L 270.871492 218.557484 
L 271.892419 211.855353 
L 272.913345 227.414276 
L 273.934271 212.511964 
L 274.955197 211.713731 
L 275.976123 262.651491 
L 276.99705 263.939529 
L 278.017976 227.220835 
L 279.038902 216.15925 
L 280.059828 218.557484 
L 281.080755 229.040155 
L 282.101681 218.557484 
L 283.122607 231.155055 
L 284.143533 200.968978 
L 285.16446 207.408835 
L 286.185386 181.90222 
L 287.206312 219.31708 
L 288.227238 224.313362 
L 289.248165 218.557484 
L 290.269091 219.473925 
L 291.290017 236.030035 
L 292.310943 198.116373 
L 293.33187 201.012081 
L 294.352796 218.557484 
L 295.373722 211.479787 
L 297.415575 189.759554 
L 298.436501 236.319962 
L 299.457427 199.564366 
L 300.478353 218.557484 
L 301.49928 222.675528 
L 302.520206 237.572884 
L 303.541132 243.253 
L 304.562058 189.736324 
L 305.582985 254.787807 
L 306.603911 196.979373 
L 307.624837 236.456718 
L 308.645763 188.852597 
L 309.66669 218.557484 
L 310.687616 235.842708 
L 311.708542 237.959434 
L 312.729468 231.867007 
L 313.750395 189.904235 
L 314.771321 227.694362 
L 315.792247 230.541174 
L 316.813173 236.06953 
L 317.834099 193.181942 
L 318.855026 227.142534 
L 319.875952 236.61332 
L 320.896878 207.894538 
L 321.917804 239.259659 
L 322.938731 220.41617 
L 323.959657 227.734955 
L 324.980583 207.39805 
L 326.001509 245.00534 
L 327.022436 243.385584 
L 328.043362 227.658894 
L 329.064288 225.962667 
L 330.085214 237.787538 
L 331.106141 227.095889 
L 332.127067 183.040778 
L 333.147993 237.478228 
L 334.168919 222.572281 
L 335.189846 227.879883 
L 336.210772 193.989632 
L 337.231698 227.900606 
L 338.252624 240.578025 
L 339.273551 204.807323 
L 340.294477 233.170276 
L 341.315403 192.613993 
L 342.336329 246.103517 
L 343.357256 222.376418 
L 344.378182 218.557484 
L 345.399108 224.039171 
L 346.420034 218.557484 
L 347.440961 226.611784 
L 348.461887 237.09786 
L 349.482813 236.274394 
L 350.503739 188.340134 
L 351.524666 176.292296 
L 352.545592 250.654979 
L 353.566518 226.321552 
L 354.587444 232.216616 
L 355.60837 218.557484 
L 356.629297 195.778439 
L 357.650223 233.260474 
L 358.671149 250.577481 
L 359.692075 218.902556 
L 360.713002 218.557484 
L 361.733928 251.075089 
L 362.754854 227.526439 
L 363.77578 269.163228 
L 364.796707 227.721111 
L 365.817633 211.983119 
L 366.838559 218.557484 
L 367.859485 265.493406 
L 368.880412 257.551409 
L 369.901338 218.884798 
L 370.922264 199.319312 
L 371.94319 218.557484 
L 372.964117 165.297401 
L 373.985043 218.557484 
L 375.005969 248.271945 
L 376.026895 238.169908 
L 377.047822 218.557484 
L 378.068748 193.879502 
L 379.089674 218.557484 
L 380.1106 208.617424 
L 381.131527 218.557484 
L 382.152453 222.659928 
L 383.173379 235.376361 
L 384.194305 232.357317 
L 385.215232 239.526779 
L 386.236158 218.557484 
L 387.257084 210.405659 
L 388.27801 222.511165 
L 389.298937 191.010486 
L 390.319863 218.557484 
L 391.340789 295.488 
L 392.361715 218.557484 
L 393.382642 228.154512 
L 394.403568 208.26552 
L 395.424494 246.480896 
L 396.44542 239.061532 
L 397.466346 218.557484 
L 398.487273 273.970655 
L 398.487273 273.970655 
" style="fill:none;stroke:#1f77b4;stroke-linecap:square;stroke-width:1.5;"/>
   </g>
   <g id="line2d_2">
    <path clip-path="url(#p8fdea5c044)" d="M 73.832727 96.238609 
L 74.853654 203.302379 
L 75.87458 197.955074 
L 76.895506 195.524678 
L 77.916432 243.142492 
L 78.937358 203.363441 
L 79.958285 221.310113 
L 80.979211 230.132718 
L 82.000137 181.703941 
L 83.021063 231.526249 
L 84.04199 228.046165 
L 85.062916 232.222889 
L 86.083842 242.448706 
L 87.104768 202.512938 
L 88.125695 242.805029 
L 89.146621 202.782326 
L 90.167547 242.305179 
L 91.188473 202.398557 
L 92.2094 242.7326 
L 93.230326 203.89099 
L 94.251252 211.238428 
L 95.272178 232.031278 
L 96.293105 183.292696 
L 97.314031 228.706306 
L 98.334957 227.616698 
L 99.355883 232.997346 
L 100.37681 230.844702 
L 101.397736 186.370354 
L 102.418662 226.499804 
L 103.439588 227.911618 
L 104.460515 232.220245 
L 105.481441 242.051335 
L 106.502367 202.413948 
L 107.523293 243.121736 
L 108.54422 202.420946 
L 109.565146 243.124066 
L 110.586072 202.678792 
L 111.606998 242.331615 
L 112.627925 203.373502 
L 113.648851 246.757996 
L 114.669777 204.43502 
L 115.690703 187.976879 
L 116.71163 228.30383 
L 117.732556 230.209409 
L 118.753482 229.036281 
L 119.774408 221.492288 
L 120.795334 222.946827 
L 121.816261 242.946969 
L 122.837187 202.958267 
L 123.858113 230.300381 
L 124.879039 182.734423 
L 125.899966 229.164327 
L 126.920892 227.878016 
L 127.941818 232.237401 
L 128.962744 230.635873 
L 129.983671 183.761662 
L 131.004597 231.837 
L 132.025523 230.208704 
L 133.046449 229.0634 
L 134.067376 221.425663 
L 135.088302 230.301541 
L 136.109228 182.768493 
L 137.130154 230.164548 
L 138.151081 227.883201 
L 139.172007 232.226325 
L 140.192933 241.894014 
L 141.213859 196.229163 
L 142.234786 229.850504 
L 143.255712 234.926246 
L 144.276638 185.201237 
L 145.297564 227.765691 
L 146.318491 230.106197 
L 147.339417 229.027582 
L 148.360343 224.621102 
L 149.381269 222.850067 
L 150.402196 243.349583 
L 151.423122 203.844045 
L 153.464974 243.365647 
L 154.485901 203.866688 
L 156.527753 243.352461 
L 157.548679 203.89813 
L 159.590532 243.002079 
L 160.611458 203.858242 
L 161.632384 222.850996 
L 162.65331 247.495584 
L 163.674237 203.884078 
L 165.716089 244.164333 
L 166.737015 204.671057 
L 167.757942 188.038147 
L 168.778868 228.372602 
L 169.799794 229.674868 
L 170.82072 229.056963 
L 171.841647 224.753177 
L 172.862573 223.158549 
L 173.883499 243.626375 
L 174.904425 204.470512 
L 175.925352 221.33092 
L 176.946278 232.686197 
L 177.967204 187.313442 
L 178.98813 227.877877 
L 180.009057 232.236976 
L 181.029983 230.532466 
L 182.050909 183.985871 
L 183.071835 226.721294 
L 184.092762 227.836615 
L 186.134614 236.486962 
L 187.15554 182.772761 
L 188.176467 230.720398 
L 189.197393 231.403177 
L 190.218319 231.436148 
L 191.239245 234.111052 
L 192.260172 187.112826 
L 193.281098 227.530672 
L 194.302024 232.742966 
L 195.32295 231.025154 
L 196.343877 183.42305 
L 197.364803 232.084375 
L 198.385729 230.207913 
L 199.406655 229.0489 
L 200.427581 225.243988 
L 201.448508 222.906603 
L 202.469434 243.276036 
L 203.49036 202.519879 
L 204.511286 232.529775 
L 205.532213 188.76225 
L 206.553139 227.999681 
L 207.574065 232.996847 
L 208.594991 231.888118 
L 209.615918 183.271127 
L 210.636844 231.584404 
L 211.65777 229.138907 
L 212.678696 231.434882 
L 213.699623 232.440209 
L 214.720549 185.967935 
L 215.741475 228.17292 
L 216.762401 229.673563 
L 217.783328 229.337996 
L 218.804254 222.877403 
L 219.82518 243.212459 
L 220.846106 204.835415 
L 221.867033 221.08013 
L 222.887959 222.964501 
L 223.908885 243.227314 
L 224.929811 203.010117 
L 226.971664 243.202937 
L 227.99259 205.126239 
L 229.013516 213.511789 
L 230.034443 240.160354 
L 231.055369 198.328868 
L 232.076295 229.058328 
L 233.097221 223.117675 
L 234.118148 242.835021 
L 235.139074 205.192524 
L 236.16 213.208521 
L 237.180926 240.771987 
L 238.201852 198.863135 
L 239.222779 229.066079 
L 240.243705 221.081615 
L 241.264631 223.307164 
L 242.285557 243.242251 
L 243.306484 202.986332 
L 245.348336 243.614664 
L 246.369262 202.984817 
L 248.411115 243.257644 
L 249.432041 202.946969 
L 251.473894 243.220789 
L 252.49482 203.545412 
L 253.515746 221.435364 
L 254.536672 225.341265 
L 255.557599 232.663133 
L 256.578525 186.173168 
L 257.599451 228.570025 
L 258.620377 232.744791 
L 259.641304 231.992463 
L 260.66223 183.951879 
L 261.683156 227.205322 
L 262.704082 228.028252 
L 263.725009 232.225164 
L 264.745935 238.893046 
L 265.766861 186.196108 
L 266.787787 227.84 
L 267.808714 232.232448 
L 268.82964 230.691073 
L 269.850566 183.419528 
L 270.871492 231.910459 
L 271.892419 230.204885 
L 272.913345 229.089756 
L 273.934271 225.61213 
L 274.955197 225.454484 
L 275.976123 232.87926 
L 276.99705 185.301286 
L 278.017976 226.766962 
L 279.038902 230.519948 
L 280.059828 231.431367 
L 281.080755 225.449285 
L 282.101681 225.561074 
L 283.122607 232.869114 
L 284.143533 185.396696 
L 285.16446 226.412764 
L 286.185386 230.632957 
L 287.206312 231.431145 
L 288.227238 225.322742 
L 289.248165 225.354853 
L 290.269091 233.420467 
L 291.290017 185.417107 
L 292.310943 226.563974 
L 293.33187 229.350572 
L 294.352796 231.433441 
L 295.373722 233.051524 
L 296.394648 186.349778 
L 297.415575 227.926094 
L 298.436501 232.742511 
L 299.457427 231.760275 
L 300.478353 184.257799 
L 301.49928 226.31328 
L 302.520206 227.913255 
L 303.541132 232.224488 
L 304.562058 239.188862 
L 305.582985 185.570533 
L 306.603911 226.5842 
L 307.624837 229.555595 
L 308.645763 231.431629 
L 309.66669 225.358676 
L 310.687616 232.99954 
L 311.708542 185.524113 
L 312.729468 226.585767 
L 313.750395 229.555205 
L 314.771321 231.431623 
L 315.792247 225.739469 
L 316.813173 233.392426 
L 317.834099 186.279267 
L 318.855026 227.845901 
L 319.875952 232.742515 
L 320.896878 231.814183 
L 321.917804 184.781491 
L 322.938731 225.655189 
L 323.959657 227.972379 
L 324.980583 232.223879 
L 326.001509 233.005588 
L 327.022436 181.868562 
L 328.043362 231.904024 
L 329.064288 229.136713 
L 330.085214 231.435354 
L 331.106141 243.268194 
L 332.127067 204.023863 
L 333.147993 219.454461 
L 334.168919 243.383565 
L 335.189846 203.730351 
L 336.210772 225.684804 
L 337.231698 225.683789 
L 338.252624 226.003473 
L 339.273551 225.664372 
L 340.294477 232.963361 
L 341.315403 186.126751 
L 342.336329 227.759889 
L 343.357256 232.742956 
L 344.378182 232.133149 
L 345.399108 185.320256 
L 346.420034 226.908171 
L 347.440961 230.342307 
L 348.461887 231.434518 
L 349.482813 243.681456 
L 350.503739 204.315051 
L 351.524666 219.08389 
L 352.545592 243.694237 
L 353.566518 204.067509 
L 354.587444 219.407634 
L 355.60837 243.399703 
L 356.629297 202.495286 
L 357.650223 225.940238 
L 358.671149 225.815063 
L 359.692075 226.464649 
L 361.733928 225.866679 
L 362.754854 226.208564 
L 363.77578 225.92877 
L 364.796707 233.082522 
L 365.817633 184.581293 
L 366.838559 226.222987 
L 367.859485 229.322004 
L 368.880412 231.432883 
L 369.901338 233.203574 
L 370.922264 184.491578 
L 371.94319 226.830628 
L 372.964117 230.303225 
L 373.985043 231.435427 
L 375.005969 244.599015 
L 376.026895 201.70433 
L 377.047822 233.435819 
L 378.068748 184.305815 
L 379.089674 225.661876 
L 380.1106 230.604168 
L 381.131527 231.448188 
L 382.152453 244.887699 
L 383.173379 198.911084 
L 383.173379 198.911084 
" style="fill:none;stroke:#ff9800;stroke-linecap:square;stroke-width:1.5;"/>
   </g>
   <g id="line2d_3">
    <path clip-path="url(#p8fdea5c044)" d="M 73.832727 115.088066 
L 74.853654 194.923444 
L 76.895506 210.371977 
L 77.916432 199.512744 
L 78.937358 192.194747 
L 79.958285 190.161825 
L 80.979211 212.38269 
L 82.000137 231.652646 
L 83.021063 217.298452 
L 84.04199 214.517316 
L 85.062916 216.367226 
L 86.083842 236.663693 
L 87.104768 225.297868 
L 88.125695 210.752218 
L 89.146621 224.993368 
L 90.167547 229.767205 
L 91.188473 195.007753 
L 92.2094 218.631058 
L 93.230326 236.053413 
L 94.251252 219.34482 
L 95.272178 271.125257 
L 96.293105 184.090516 
L 97.314031 234.989874 
L 98.334957 203.060867 
L 99.355883 224.26877 
L 100.37681 230.216503 
L 101.397736 228.060175 
L 102.418662 209.010078 
L 103.439588 225.567174 
L 104.460515 206.653373 
L 105.481441 229.306495 
L 106.502367 248.63739 
L 107.523293 208.733697 
L 108.54422 192.501086 
L 109.565146 215.554542 
L 110.586072 233.894708 
L 111.606998 242.52278 
L 112.627925 203.754985 
L 113.648851 221.938918 
L 114.669777 212.728817 
L 115.690703 220.748985 
L 116.71163 218.818422 
L 117.732556 214.480911 
L 118.753482 229.499599 
L 119.774408 216.644887 
L 120.795334 224.670808 
L 121.816261 225.742803 
L 122.837187 230.485418 
L 123.858113 210.921462 
L 124.879039 231.438144 
L 125.899966 215.164729 
L 126.920892 213.574853 
L 127.941818 239.637991 
L 128.962744 204.129214 
L 129.983671 227.460372 
L 131.004597 206.428056 
L 132.025523 225.100929 
L 133.046449 235.982246 
L 134.067376 234.27418 
L 135.088302 227.780346 
L 136.109228 212.97639 
L 137.130154 227.780559 
L 138.151081 205.522094 
L 139.172007 214.64538 
L 140.192933 231.799199 
L 141.213859 210.635428 
L 142.234786 236.733602 
L 143.255712 214.46237 
L 144.276638 232.86152 
L 145.297564 205.018328 
L 146.318491 233.984079 
L 147.339417 218.037858 
L 148.360343 236.849351 
L 149.381269 242.617615 
L 150.402196 217.50956 
L 151.423122 210.057151 
L 152.444048 206.886835 
L 153.464974 226.936233 
L 154.485901 223.951261 
L 155.506827 241.210535 
L 156.527753 228.041875 
L 157.548679 212.366785 
L 158.569605 215.665213 
L 159.590532 221.628594 
L 160.611458 230.702251 
L 161.632384 207.480529 
L 162.65331 210.644172 
L 163.674237 258.917615 
L 164.695163 196.177855 
L 165.716089 201.093016 
L 166.737015 239.672811 
L 167.757942 203.541807 
L 168.778868 237.017559 
L 169.799794 213.749094 
L 170.82072 215.553124 
L 171.841647 216.46307 
L 172.862573 249.789856 
L 173.883499 214.74988 
L 174.904425 221.374501 
L 175.925352 202.751687 
L 176.946278 245.495873 
L 177.967204 243.80106 
L 178.98813 246.726706 
L 180.009057 206.49506 
L 181.029983 210.536231 
L 182.050909 201.406577 
L 183.071835 208.943356 
L 184.092762 233.846142 
L 185.113688 224.332583 
L 186.134614 232.239987 
L 187.15554 207.967956 
L 188.176467 242.224059 
L 189.197393 210.113699 
L 190.218319 240.52713 
L 191.239245 216.599428 
L 192.260172 205.270395 
L 193.281098 225.581615 
L 194.302024 226.816712 
L 195.32295 258.198589 
L 196.343877 209.651654 
L 197.364803 200.437428 
L 198.385729 227.041149 
L 199.406655 207.590157 
L 200.427581 237.645289 
L 201.448508 228.884912 
L 202.469434 186.444352 
L 203.49036 226.274404 
L 204.511286 234.089735 
L 205.532213 206.108186 
L 206.553139 239.50203 
L 207.574065 207.216319 
L 208.594991 189.974233 
L 209.615918 248.710204 
L 210.636844 218.57594 
L 211.65777 237.436621 
L 212.678696 195.798087 
L 213.699623 254.623286 
L 214.720549 225.832519 
L 215.741475 203.105771 
L 216.762401 231.060425 
L 217.783328 192.11422 
L 218.804254 253.264856 
L 219.82518 222.794572 
L 220.846106 210.706772 
L 221.867033 242.534969 
L 222.887959 233.470557 
L 223.908885 216.555082 
L 224.929811 222.662931 
L 225.950738 207.629102 
L 226.971664 252.555726 
L 227.99259 200.592559 
L 229.013516 192.28696 
L 230.034443 226.957385 
L 231.055369 234.223497 
L 233.097221 215.561938 
L 234.118148 232.806545 
L 235.139074 197.423932 
L 236.16 240.167133 
L 237.180926 214.874514 
L 238.201852 222.612346 
L 239.222779 228.023418 
L 240.243705 209.058588 
L 242.285557 222.571624 
L 243.306484 225.63345 
L 244.32741 218.920092 
L 245.348336 239.253555 
L 246.369262 199.367362 
L 247.390189 221.963423 
L 248.411115 227.38545 
L 249.432041 221.052252 
L 250.452967 227.320478 
L 251.473894 231.441993 
L 252.49482 226.116883 
L 253.515746 214.8944 
L 254.536672 214.175522 
L 255.557599 231.966225 
L 256.578525 203.991222 
L 257.599451 252.415514 
L 258.620377 222.747232 
L 259.641304 206.782812 
L 260.66223 228.422298 
L 261.683156 237.450817 
L 262.704082 187.893409 
L 263.725009 255.838017 
L 264.745935 205.658374 
L 265.766861 224.551098 
L 266.787787 195.20158 
L 267.808714 230.638359 
L 268.82964 224.963608 
L 269.850566 228.72924 
L 270.871492 233.690572 
L 271.892419 206.731617 
L 272.913345 231.996088 
L 273.934271 241.446092 
L 274.955197 220.097201 
L 275.976123 193.001081 
L 278.017976 233.995735 
L 279.038902 186.342012 
L 280.059828 226.182159 
L 281.080755 232.368791 
L 282.101681 227.756726 
L 283.122607 213.216417 
L 284.143533 237.597236 
L 285.16446 213.885703 
L 286.185386 236.002064 
L 287.206312 222.725444 
L 288.227238 182.407334 
L 289.248165 243.82078 
L 290.269091 230.872412 
L 291.290017 248.77414 
L 292.310943 196.209144 
L 293.33187 232.500473 
L 294.352796 227.838249 
L 295.373722 204.755078 
L 296.394648 243.313369 
L 297.415575 204.824636 
L 298.436501 241.812126 
L 299.457427 198.564566 
L 300.478353 238.190535 
L 301.49928 195.936015 
L 302.520206 256.621232 
L 303.541132 229.306366 
L 305.582985 204.750336 
L 306.603911 243.695796 
L 307.624837 201.009446 
L 308.645763 221.524313 
L 309.66669 230.698119 
L 310.687616 213.244671 
L 311.708542 229.600762 
L 312.729468 197.472888 
L 313.750395 238.663021 
L 315.792247 199.971515 
L 316.813173 226.996448 
L 317.834099 230.092986 
L 318.855026 227.940773 
L 319.875952 204.54394 
L 320.896878 238.782496 
L 321.917804 221.031558 
L 322.938731 226.359186 
L 323.959657 226.493115 
L 324.980583 204.240661 
L 326.001509 240.624073 
L 327.022436 195.691675 
L 328.043362 221.120981 
L 329.064288 238.586173 
L 330.085214 226.348535 
L 331.106141 219.127587 
L 332.127067 249.342851 
L 333.147993 202.915488 
L 334.168919 199.022333 
L 335.189846 235.173863 
L 336.210772 210.816697 
L 337.231698 228.454218 
L 338.252624 217.389208 
L 339.273551 215.082129 
L 340.294477 239.712056 
L 341.315403 190.028971 
L 342.336329 243.894016 
L 343.357256 222.857932 
L 344.378182 210.408679 
L 345.399108 222.408218 
L 346.420034 246.849054 
L 347.440961 186.906155 
L 348.461887 221.850309 
L 349.482813 241.064684 
L 350.503739 219.483826 
L 351.524666 240.732571 
L 352.545592 226.293574 
L 353.566518 230.664341 
L 354.587444 191.881452 
L 355.60837 201.583657 
L 356.629297 236.83313 
L 357.650223 240.225136 
L 358.671149 197.352434 
L 359.692075 201.87936 
L 360.713002 231.535168 
L 361.733928 235.011416 
L 362.754854 223.755524 
L 363.77578 200.08356 
L 364.796707 247.845365 
L 365.817633 229.373317 
L 366.838559 206.278882 
L 367.859485 189.843674 
L 368.880412 223.509452 
L 369.901338 231.996225 
L 370.922264 225.502266 
L 371.94319 197.552386 
L 372.964117 221.000634 
L 373.985043 207.697529 
L 375.005969 223.209755 
L 377.047822 227.367986 
L 378.068748 249.500342 
L 379.089674 233.815946 
L 379.089674 233.815946 
" style="fill:none;stroke:#4caf50;stroke-linecap:square;stroke-width:1.5;"/>
   </g>
   <g id="matplotlib.axis_1">
    <g id="xtick_1">
     <g id="line2d_4">
      <path clip-path="url(#p8fdea5c044)" d="M 73.832727 307.584 
L 73.832727 41.472 
" style="fill:none;stroke:#b0b0b0;stroke-linecap:square;stroke-width:0.8;"/>
     </g>
     <g id="line2d_5">
      <defs>
       <path d="M 0 0 
L 0 3.5 
" id="me332d44fd1" style="stroke:#000000;stroke-width:0.8;"/>
      </defs>
      <g>
       <use style="stroke:#000000;stroke-width:0.8;" x="73.832727" xlink:href="#me332d44fd1" y="307.584"/>
      </g>
     </g>
     <g id="text_1">
      <!-- 0 -->
      <defs>
       <path d="M 31.78125 66.40625 
Q 24.171875 66.40625 20.328125 58.90625 
Q 16.5 51.421875 16.5 36.375 
Q 16.5 21.390625 20.328125 13.890625 
Q 24.171875 6.390625 31.78125 6.390625 
Q 39.453125 6.390625 43.28125 13.890625 
Q 47.125 21.390625 47.125 36.375 
Q 47.125 51.421875 43.28125 58.90625 
Q 39.453125 66.40625 31.78125 66.40625 
z
M 31.78125 74.21875 
Q 44.046875 74.21875 50.515625 64.515625 
Q 56.984375 54.828125 56.984375 36.375 
Q 56.984375 17.96875 50.515625 8.265625 
Q 44.046875 -1.421875 31.78125 -1.421875 
Q 19.53125 -1.421875 13.0625 8.265625 
Q 6.59375 17.96875 6.59375 36.375 
Q 6.59375 54.828125 13.0625 64.515625 
Q 19.53125 74.21875 31.78125 74.21875 
z
" id="DejaVuSans-48"/>
      </defs>
      <g transform="translate(70.651477 322.182437)scale(0.1 -0.1)">
       <use xlink:href="#DejaVuSans-48"/>
      </g>
     </g>
    </g>
    <g id="xtick_2">
     <g id="line2d_6">
      <path clip-path="url(#p8fdea5c044)" d="M 124.879039 307.584 
L 124.879039 41.472 
" style="fill:none;stroke:#b0b0b0;stroke-linecap:square;stroke-width:0.8;"/>
     </g>
     <g id="line2d_7">
      <g>
       <use style="stroke:#000000;stroke-width:0.8;" x="124.879039" xlink:href="#me332d44fd1" y="307.584"/>
      </g>
     </g>
     <g id="text_2">
      <!-- 50 -->
      <defs>
       <path d="M 10.796875 72.90625 
L 49.515625 72.90625 
L 49.515625 64.59375 
L 19.828125 64.59375 
L 19.828125 46.734375 
Q 21.96875 47.46875 24.109375 47.828125 
Q 26.265625 48.1875 28.421875 48.1875 
Q 40.625 48.1875 47.75 41.5 
Q 54.890625 34.8125 54.890625 23.390625 
Q 54.890625 11.625 47.5625 5.09375 
Q 40.234375 -1.421875 26.90625 -1.421875 
Q 22.3125 -1.421875 17.546875 -0.640625 
Q 12.796875 0.140625 7.71875 1.703125 
L 7.71875 11.625 
Q 12.109375 9.234375 16.796875 8.0625 
Q 21.484375 6.890625 26.703125 6.890625 
Q 35.15625 6.890625 40.078125 11.328125 
Q 45.015625 15.765625 45.015625 23.390625 
Q 45.015625 31 40.078125 35.4375 
Q 35.15625 39.890625 26.703125 39.890625 
Q 22.75 39.890625 18.8125 39.015625 
Q 14.890625 38.140625 10.796875 36.28125 
z
" id="DejaVuSans-53"/>
      </defs>
      <g transform="translate(118.516539 322.182437)scale(0.1 -0.1)">
       <use xlink:href="#DejaVuSans-53"/>
       <use x="63.623047" xlink:href="#DejaVuSans-48"/>
      </g>
     </g>
    </g>
    <g id="xtick_3">
     <g id="line2d_8">
      <path clip-path="url(#p8fdea5c044)" d="M 175.925352 307.584 
L 175.925352 41.472 
" style="fill:none;stroke:#b0b0b0;stroke-linecap:square;stroke-width:0.8;"/>
     </g>
     <g id="line2d_9">
      <g>
       <use style="stroke:#000000;stroke-width:0.8;" x="175.925352" xlink:href="#me332d44fd1" y="307.584"/>
      </g>
     </g>
     <g id="text_3">
      <!-- 100 -->
      <defs>
       <path d="M 12.40625 8.296875 
L 28.515625 8.296875 
L 28.515625 63.921875 
L 10.984375 60.40625 
L 10.984375 69.390625 
L 28.421875 72.90625 
L 38.28125 72.90625 
L 38.28125 8.296875 
L 54.390625 8.296875 
L 54.390625 0 
L 12.40625 0 
z
" id="DejaVuSans-49"/>
      </defs>
      <g transform="translate(166.381602 322.182437)scale(0.1 -0.1)">
       <use xlink:href="#DejaVuSans-49"/>
       <use x="63.623047" xlink:href="#DejaVuSans-48"/>
       <use x="127.246094" xlink:href="#DejaVuSans-48"/>
      </g>
     </g>
    </g>
    <g id="xtick_4">
     <g id="line2d_10">
      <path clip-path="url(#p8fdea5c044)" d="M 226.971664 307.584 
L 226.971664 41.472 
" style="fill:none;stroke:#b0b0b0;stroke-linecap:square;stroke-width:0.8;"/>
     </g>
     <g id="line2d_11">
      <g>
       <use style="stroke:#000000;stroke-width:0.8;" x="226.971664" xlink:href="#me332d44fd1" y="307.584"/>
      </g>
     </g>
     <g id="text_4">
      <!-- 150 -->
      <g transform="translate(217.427914 322.182437)scale(0.1 -0.1)">
       <use xlink:href="#DejaVuSans-49"/>
       <use x="63.623047" xlink:href="#DejaVuSans-53"/>
       <use x="127.246094" xlink:href="#DejaVuSans-48"/>
      </g>
     </g>
    </g>
    <g id="xtick_5">
     <g id="line2d_12">
      <path clip-path="url(#p8fdea5c044)" d="M 278.017976 307.584 
L 278.017976 41.472 
" style="fill:none;stroke:#b0b0b0;stroke-linecap:square;stroke-width:0.8;"/>
     </g>
     <g id="line2d_13">
      <g>
       <use style="stroke:#000000;stroke-width:0.8;" x="278.017976" xlink:href="#me332d44fd1" y="307.584"/>
      </g>
     </g>
     <g id="text_5">
      <!-- 200 -->
      <defs>
       <path d="M 19.1875 8.296875 
L 53.609375 8.296875 
L 53.609375 0 
L 7.328125 0 
L 7.328125 8.296875 
Q 12.9375 14.109375 22.625 23.890625 
Q 32.328125 33.6875 34.8125 36.53125 
Q 39.546875 41.84375 41.421875 45.53125 
Q 43.3125 49.21875 43.3125 52.78125 
Q 43.3125 58.59375 39.234375 62.25 
Q 35.15625 65.921875 28.609375 65.921875 
Q 23.96875 65.921875 18.8125 64.3125 
Q 13.671875 62.703125 7.8125 59.421875 
L 7.8125 69.390625 
Q 13.765625 71.78125 18.9375 73 
Q 24.125 74.21875 28.421875 74.21875 
Q 39.75 74.21875 46.484375 68.546875 
Q 53.21875 62.890625 53.21875 53.421875 
Q 53.21875 48.921875 51.53125 44.890625 
Q 49.859375 40.875 45.40625 35.40625 
Q 44.1875 33.984375 37.640625 27.21875 
Q 31.109375 20.453125 19.1875 8.296875 
z
" id="DejaVuSans-50"/>
      </defs>
      <g transform="translate(268.474226 322.182437)scale(0.1 -0.1)">
       <use xlink:href="#DejaVuSans-50"/>
       <use x="63.623047" xlink:href="#DejaVuSans-48"/>
       <use x="127.246094" xlink:href="#DejaVuSans-48"/>
      </g>
     </g>
    </g>
    <g id="xtick_6">
     <g id="line2d_14">
      <path clip-path="url(#p8fdea5c044)" d="M 329.064288 307.584 
L 329.064288 41.472 
" style="fill:none;stroke:#b0b0b0;stroke-linecap:square;stroke-width:0.8;"/>
     </g>
     <g id="line2d_15">
      <g>
       <use style="stroke:#000000;stroke-width:0.8;" x="329.064288" xlink:href="#me332d44fd1" y="307.584"/>
      </g>
     </g>
     <g id="text_6">
      <!-- 250 -->
      <g transform="translate(319.520538 322.182437)scale(0.1 -0.1)">
       <use xlink:href="#DejaVuSans-50"/>
       <use x="63.623047" xlink:href="#DejaVuSans-53"/>
       <use x="127.246094" xlink:href="#DejaVuSans-48"/>
      </g>
     </g>
    </g>
    <g id="xtick_7">
     <g id="line2d_16">
      <path clip-path="url(#p8fdea5c044)" d="M 380.1106 307.584 
L 380.1106 41.472 
" style="fill:none;stroke:#b0b0b0;stroke-linecap:square;stroke-width:0.8;"/>
     </g>
     <g id="line2d_17">
      <g>
       <use style="stroke:#000000;stroke-width:0.8;" x="380.1106" xlink:href="#me332d44fd1" y="307.584"/>
      </g>
     </g>
     <g id="text_7">
      <!-- 300 -->
      <defs>
       <path d="M 40.578125 39.3125 
Q 47.65625 37.796875 51.625 33 
Q 55.609375 28.21875 55.609375 21.1875 
Q 55.609375 10.40625 48.1875 4.484375 
Q 40.765625 -1.421875 27.09375 -1.421875 
Q 22.515625 -1.421875 17.65625 -0.515625 
Q 12.796875 0.390625 7.625 2.203125 
L 7.625 11.71875 
Q 11.71875 9.328125 16.59375 8.109375 
Q 21.484375 6.890625 26.8125 6.890625 
Q 36.078125 6.890625 40.9375 10.546875 
Q 45.796875 14.203125 45.796875 21.1875 
Q 45.796875 27.640625 41.28125 31.265625 
Q 36.765625 34.90625 28.71875 34.90625 
L 20.21875 34.90625 
L 20.21875 43.015625 
L 29.109375 43.015625 
Q 36.375 43.015625 40.234375 45.921875 
Q 44.09375 48.828125 44.09375 54.296875 
Q 44.09375 59.90625 40.109375 62.90625 
Q 36.140625 65.921875 28.71875 65.921875 
Q 24.65625 65.921875 20.015625 65.03125 
Q 15.375 64.15625 9.8125 62.3125 
L 9.8125 71.09375 
Q 15.4375 72.65625 20.34375 73.4375 
Q 25.25 74.21875 29.59375 74.21875 
Q 40.828125 74.21875 47.359375 69.109375 
Q 53.90625 64.015625 53.90625 55.328125 
Q 53.90625 49.265625 50.4375 45.09375 
Q 46.96875 40.921875 40.578125 39.3125 
z
" id="DejaVuSans-51"/>
      </defs>
      <g transform="translate(370.56685 322.182437)scale(0.1 -0.1)">
       <use xlink:href="#DejaVuSans-51"/>
       <use x="63.623047" xlink:href="#DejaVuSans-48"/>
       <use x="127.246094" xlink:href="#DejaVuSans-48"/>
      </g>
     </g>
    </g>
    <g id="text_8">
     <!-- Throw -->
     <defs>
      <path d="M -0.296875 72.90625 
L 61.375 72.90625 
L 61.375 64.59375 
L 35.5 64.59375 
L 35.5 0 
L 25.59375 0 
L 25.59375 64.59375 
L -0.296875 64.59375 
z
" id="DejaVuSans-84"/>
      <path d="M 54.890625 33.015625 
L 54.890625 0 
L 45.90625 0 
L 45.90625 32.71875 
Q 45.90625 40.484375 42.875 44.328125 
Q 39.84375 48.1875 33.796875 48.1875 
Q 26.515625 48.1875 22.3125 43.546875 
Q 18.109375 38.921875 18.109375 30.90625 
L 18.109375 0 
L 9.078125 0 
L 9.078125 75.984375 
L 18.109375 75.984375 
L 18.109375 46.1875 
Q 21.34375 51.125 25.703125 53.5625 
Q 30.078125 56 35.796875 56 
Q 45.21875 56 50.046875 50.171875 
Q 54.890625 44.34375 54.890625 33.015625 
z
" id="DejaVuSans-104"/>
      <path d="M 41.109375 46.296875 
Q 39.59375 47.171875 37.8125 47.578125 
Q 36.03125 48 33.890625 48 
Q 26.265625 48 22.1875 43.046875 
Q 18.109375 38.09375 18.109375 28.8125 
L 18.109375 0 
L 9.078125 0 
L 9.078125 54.6875 
L 18.109375 54.6875 
L 18.109375 46.1875 
Q 20.953125 51.171875 25.484375 53.578125 
Q 30.03125 56 36.53125 56 
Q 37.453125 56 38.578125 55.875 
Q 39.703125 55.765625 41.0625 55.515625 
z
" id="DejaVuSans-114"/>
      <path d="M 30.609375 48.390625 
Q 23.390625 48.390625 19.1875 42.75 
Q 14.984375 37.109375 14.984375 27.296875 
Q 14.984375 17.484375 19.15625 11.84375 
Q 23.34375 6.203125 30.609375 6.203125 
Q 37.796875 6.203125 41.984375 11.859375 
Q 46.1875 17.53125 46.1875 27.296875 
Q 46.1875 37.015625 41.984375 42.703125 
Q 37.796875 48.390625 30.609375 48.390625 
z
M 30.609375 56 
Q 42.328125 56 49.015625 48.375 
Q 55.71875 40.765625 55.71875 27.296875 
Q 55.71875 13.875 49.015625 6.21875 
Q 42.328125 -1.421875 30.609375 -1.421875 
Q 18.84375 -1.421875 12.171875 6.21875 
Q 5.515625 13.875 5.515625 27.296875 
Q 5.515625 40.765625 12.171875 48.375 
Q 18.84375 56 30.609375 56 
z
" id="DejaVuSans-111"/>
      <path d="M 4.203125 54.6875 
L 13.1875 54.6875 
L 24.421875 12.015625 
L 35.59375 54.6875 
L 46.1875 54.6875 
L 57.421875 12.015625 
L 68.609375 54.6875 
L 77.59375 54.6875 
L 63.28125 0 
L 52.6875 0 
L 40.921875 44.828125 
L 29.109375 0 
L 18.5 0 
z
" id="DejaVuSans-119"/>
     </defs>
     <g transform="translate(220.735 335.860562)scale(0.1 -0.1)">
      <use xlink:href="#DejaVuSans-84"/>
      <use x="61.083984" xlink:href="#DejaVuSans-104"/>
      <use x="124.462891" xlink:href="#DejaVuSans-114"/>
      <use x="165.544922" xlink:href="#DejaVuSans-111"/>
      <use x="226.726562" xlink:href="#DejaVuSans-119"/>
     </g>
    </g>
   </g>
   <g id="matplotlib.axis_2">
    <g id="ytick_1">
     <g id="line2d_18">
      <path clip-path="url(#p8fdea5c044)" d="M 57.6 281.235922 
L 414.72 281.235922 
" style="fill:none;stroke:#b0b0b0;stroke-linecap:square;stroke-width:0.8;"/>
     </g>
     <g id="line2d_19">
      <defs>
       <path d="M 0 0 
L -3.5 0 
" id="m3edbc6ce64" style="stroke:#000000;stroke-width:0.8;"/>
      </defs>
      <g>
       <use style="stroke:#000000;stroke-width:0.8;" x="57.6" xlink:href="#m3edbc6ce64" y="281.235922"/>
      </g>
     </g>
     <g id="text_9">
      <!-- −4 -->
      <defs>
       <path d="M 10.59375 35.5 
L 73.1875 35.5 
L 73.1875 27.203125 
L 10.59375 27.203125 
z
" id="DejaVuSans-8722"/>
       <path d="M 37.796875 64.3125 
L 12.890625 25.390625 
L 37.796875 25.390625 
z
M 35.203125 72.90625 
L 47.609375 72.90625 
L 47.609375 25.390625 
L 58.015625 25.390625 
L 58.015625 17.1875 
L 47.609375 17.1875 
L 47.609375 0 
L 37.796875 0 
L 37.796875 17.1875 
L 4.890625 17.1875 
L 4.890625 26.703125 
z
" id="DejaVuSans-52"/>
      </defs>
      <g transform="translate(35.857813 285.035141)scale(0.1 -0.1)">
       <use xlink:href="#DejaVuSans-8722"/>
       <use x="83.789062" xlink:href="#DejaVuSans-52"/>
      </g>
     </g>
    </g>
    <g id="ytick_2">
     <g id="line2d_20">
      <path clip-path="url(#p8fdea5c044)" d="M 57.6 249.896703 
L 414.72 249.896703 
" style="fill:none;stroke:#b0b0b0;stroke-linecap:square;stroke-width:0.8;"/>
     </g>
     <g id="line2d_21">
      <g>
       <use style="stroke:#000000;stroke-width:0.8;" x="57.6" xlink:href="#m3edbc6ce64" y="249.896703"/>
      </g>
     </g>
     <g id="text_10">
      <!-- −2 -->
      <g transform="translate(35.857813 253.695922)scale(0.1 -0.1)">
       <use xlink:href="#DejaVuSans-8722"/>
       <use x="83.789062" xlink:href="#DejaVuSans-50"/>
      </g>
     </g>
    </g>
    <g id="ytick_3">
     <g id="line2d_22">
      <path clip-path="url(#p8fdea5c044)" d="M 57.6 218.557484 
L 414.72 218.557484 
" style="fill:none;stroke:#b0b0b0;stroke-linecap:square;stroke-width:0.8;"/>
     </g>
     <g id="line2d_23">
      <g>
       <use style="stroke:#000000;stroke-width:0.8;" x="57.6" xlink:href="#m3edbc6ce64" y="218.557484"/>
      </g>
     </g>
     <g id="text_11">
      <!-- 0 -->
      <g transform="translate(44.2375 222.356702)scale(0.1 -0.1)">
       <use xlink:href="#DejaVuSans-48"/>
      </g>
     </g>
    </g>
    <g id="ytick_4">
     <g id="line2d_24">
      <path clip-path="url(#p8fdea5c044)" d="M 57.6 187.218264 
L 414.72 187.218264 
" style="fill:none;stroke:#b0b0b0;stroke-linecap:square;stroke-width:0.8;"/>
     </g>
     <g id="line2d_25">
      <g>
       <use style="stroke:#000000;stroke-width:0.8;" x="57.6" xlink:href="#m3edbc6ce64" y="187.218264"/>
      </g>
     </g>
     <g id="text_12">
      <!-- 2 -->
      <g transform="translate(44.2375 191.017483)scale(0.1 -0.1)">
       <use xlink:href="#DejaVuSans-50"/>
      </g>
     </g>
    </g>
    <g id="ytick_5">
     <g id="line2d_26">
      <path clip-path="url(#p8fdea5c044)" d="M 57.6 155.879045 
L 414.72 155.879045 
" style="fill:none;stroke:#b0b0b0;stroke-linecap:square;stroke-width:0.8;"/>
     </g>
     <g id="line2d_27">
      <g>
       <use style="stroke:#000000;stroke-width:0.8;" x="57.6" xlink:href="#m3edbc6ce64" y="155.879045"/>
      </g>
     </g>
     <g id="text_13">
      <!-- 4 -->
      <g transform="translate(44.2375 159.678264)scale(0.1 -0.1)">
       <use xlink:href="#DejaVuSans-52"/>
      </g>
     </g>
    </g>
    <g id="ytick_6">
     <g id="line2d_28">
      <path clip-path="url(#p8fdea5c044)" d="M 57.6 124.539826 
L 414.72 124.539826 
" style="fill:none;stroke:#b0b0b0;stroke-linecap:square;stroke-width:0.8;"/>
     </g>
     <g id="line2d_29">
      <g>
       <use style="stroke:#000000;stroke-width:0.8;" x="57.6" xlink:href="#m3edbc6ce64" y="124.539826"/>
      </g>
     </g>
     <g id="text_14">
      <!-- 6 -->
      <defs>
       <path d="M 33.015625 40.375 
Q 26.375 40.375 22.484375 35.828125 
Q 18.609375 31.296875 18.609375 23.390625 
Q 18.609375 15.53125 22.484375 10.953125 
Q 26.375 6.390625 33.015625 6.390625 
Q 39.65625 6.390625 43.53125 10.953125 
Q 47.40625 15.53125 47.40625 23.390625 
Q 47.40625 31.296875 43.53125 35.828125 
Q 39.65625 40.375 33.015625 40.375 
z
M 52.59375 71.296875 
L 52.59375 62.3125 
Q 48.875 64.0625 45.09375 64.984375 
Q 41.3125 65.921875 37.59375 65.921875 
Q 27.828125 65.921875 22.671875 59.328125 
Q 17.53125 52.734375 16.796875 39.40625 
Q 19.671875 43.65625 24.015625 45.921875 
Q 28.375 48.1875 33.59375 48.1875 
Q 44.578125 48.1875 50.953125 41.515625 
Q 57.328125 34.859375 57.328125 23.390625 
Q 57.328125 12.15625 50.6875 5.359375 
Q 44.046875 -1.421875 33.015625 -1.421875 
Q 20.359375 -1.421875 13.671875 8.265625 
Q 6.984375 17.96875 6.984375 36.375 
Q 6.984375 53.65625 15.1875 63.9375 
Q 23.390625 74.21875 37.203125 74.21875 
Q 40.921875 74.21875 44.703125 73.484375 
Q 48.484375 72.75 52.59375 71.296875 
z
" id="DejaVuSans-54"/>
      </defs>
      <g transform="translate(44.2375 128.339045)scale(0.1 -0.1)">
       <use xlink:href="#DejaVuSans-54"/>
      </g>
     </g>
    </g>
    <g id="ytick_7">
     <g id="line2d_30">
      <path clip-path="url(#p8fdea5c044)" d="M 57.6 93.200607 
L 414.72 93.200607 
" style="fill:none;stroke:#b0b0b0;stroke-linecap:square;stroke-width:0.8;"/>
     </g>
     <g id="line2d_31">
      <g>
       <use style="stroke:#000000;stroke-width:0.8;" x="57.6" xlink:href="#m3edbc6ce64" y="93.200607"/>
      </g>
     </g>
     <g id="text_15">
      <!-- 8 -->
      <defs>
       <path d="M 31.78125 34.625 
Q 24.75 34.625 20.71875 30.859375 
Q 16.703125 27.09375 16.703125 20.515625 
Q 16.703125 13.921875 20.71875 10.15625 
Q 24.75 6.390625 31.78125 6.390625 
Q 38.8125 6.390625 42.859375 10.171875 
Q 46.921875 13.96875 46.921875 20.515625 
Q 46.921875 27.09375 42.890625 30.859375 
Q 38.875 34.625 31.78125 34.625 
z
M 21.921875 38.8125 
Q 15.578125 40.375 12.03125 44.71875 
Q 8.5 49.078125 8.5 55.328125 
Q 8.5 64.0625 14.71875 69.140625 
Q 20.953125 74.21875 31.78125 74.21875 
Q 42.671875 74.21875 48.875 69.140625 
Q 55.078125 64.0625 55.078125 55.328125 
Q 55.078125 49.078125 51.53125 44.71875 
Q 48 40.375 41.703125 38.8125 
Q 48.828125 37.15625 52.796875 32.3125 
Q 56.78125 27.484375 56.78125 20.515625 
Q 56.78125 9.90625 50.3125 4.234375 
Q 43.84375 -1.421875 31.78125 -1.421875 
Q 19.734375 -1.421875 13.25 4.234375 
Q 6.78125 9.90625 6.78125 20.515625 
Q 6.78125 27.484375 10.78125 32.3125 
Q 14.796875 37.15625 21.921875 38.8125 
z
M 18.3125 54.390625 
Q 18.3125 48.734375 21.84375 45.5625 
Q 25.390625 42.390625 31.78125 42.390625 
Q 38.140625 42.390625 41.71875 45.5625 
Q 45.3125 48.734375 45.3125 54.390625 
Q 45.3125 60.0625 41.71875 63.234375 
Q 38.140625 66.40625 31.78125 66.40625 
Q 25.390625 66.40625 21.84375 63.234375 
Q 18.3125 60.0625 18.3125 54.390625 
z
" id="DejaVuSans-56"/>
      </defs>
      <g transform="translate(44.2375 96.999826)scale(0.1 -0.1)">
       <use xlink:href="#DejaVuSans-56"/>
      </g>
     </g>
    </g>
    <g id="ytick_8">
     <g id="line2d_32">
      <path clip-path="url(#p8fdea5c044)" d="M 57.6 61.861388 
L 414.72 61.861388 
" style="fill:none;stroke:#b0b0b0;stroke-linecap:square;stroke-width:0.8;"/>
     </g>
     <g id="line2d_33">
      <g>
       <use style="stroke:#000000;stroke-width:0.8;" x="57.6" xlink:href="#m3edbc6ce64" y="61.861388"/>
      </g>
     </g>
     <g id="text_16">
      <!-- 10 -->
      <g transform="translate(37.875 65.660606)scale(0.1 -0.1)">
       <use xlink:href="#DejaVuSans-49"/>
       <use x="63.623047" xlink:href="#DejaVuSans-48"/>
      </g>
     </g>
    </g>
    <g id="text_17">
     <!-- Throw Result -->
     <defs>
      <path id="DejaVuSans-32"/>
      <path d="M 44.390625 34.1875 
Q 47.5625 33.109375 50.5625 29.59375 
Q 53.5625 26.078125 56.59375 19.921875 
L 66.609375 0 
L 56 0 
L 46.6875 18.703125 
Q 43.0625 26.03125 39.671875 28.421875 
Q 36.28125 30.8125 30.421875 30.8125 
L 19.671875 30.8125 
L 19.671875 0 
L 9.8125 0 
L 9.8125 72.90625 
L 32.078125 72.90625 
Q 44.578125 72.90625 50.734375 67.671875 
Q 56.890625 62.453125 56.890625 51.90625 
Q 56.890625 45.015625 53.6875 40.46875 
Q 50.484375 35.9375 44.390625 34.1875 
z
M 19.671875 64.796875 
L 19.671875 38.921875 
L 32.078125 38.921875 
Q 39.203125 38.921875 42.84375 42.21875 
Q 46.484375 45.515625 46.484375 51.90625 
Q 46.484375 58.296875 42.84375 61.546875 
Q 39.203125 64.796875 32.078125 64.796875 
z
" id="DejaVuSans-82"/>
      <path d="M 56.203125 29.59375 
L 56.203125 25.203125 
L 14.890625 25.203125 
Q 15.484375 15.921875 20.484375 11.0625 
Q 25.484375 6.203125 34.421875 6.203125 
Q 39.59375 6.203125 44.453125 7.46875 
Q 49.3125 8.734375 54.109375 11.28125 
L 54.109375 2.78125 
Q 49.265625 0.734375 44.1875 -0.34375 
Q 39.109375 -1.421875 33.890625 -1.421875 
Q 20.796875 -1.421875 13.15625 6.1875 
Q 5.515625 13.8125 5.515625 26.8125 
Q 5.515625 40.234375 12.765625 48.109375 
Q 20.015625 56 32.328125 56 
Q 43.359375 56 49.78125 48.890625 
Q 56.203125 41.796875 56.203125 29.59375 
z
M 47.21875 32.234375 
Q 47.125 39.59375 43.09375 43.984375 
Q 39.0625 48.390625 32.421875 48.390625 
Q 24.90625 48.390625 20.390625 44.140625 
Q 15.875 39.890625 15.1875 32.171875 
z
" id="DejaVuSans-101"/>
      <path d="M 44.28125 53.078125 
L 44.28125 44.578125 
Q 40.484375 46.53125 36.375 47.5 
Q 32.28125 48.484375 27.875 48.484375 
Q 21.1875 48.484375 17.84375 46.4375 
Q 14.5 44.390625 14.5 40.28125 
Q 14.5 37.15625 16.890625 35.375 
Q 19.28125 33.59375 26.515625 31.984375 
L 29.59375 31.296875 
Q 39.15625 29.25 43.1875 25.515625 
Q 47.21875 21.78125 47.21875 15.09375 
Q 47.21875 7.46875 41.1875 3.015625 
Q 35.15625 -1.421875 24.609375 -1.421875 
Q 20.21875 -1.421875 15.453125 -0.5625 
Q 10.6875 0.296875 5.421875 2 
L 5.421875 11.28125 
Q 10.40625 8.6875 15.234375 7.390625 
Q 20.0625 6.109375 24.8125 6.109375 
Q 31.15625 6.109375 34.5625 8.28125 
Q 37.984375 10.453125 37.984375 14.40625 
Q 37.984375 18.0625 35.515625 20.015625 
Q 33.0625 21.96875 24.703125 23.78125 
L 21.578125 24.515625 
Q 13.234375 26.265625 9.515625 29.90625 
Q 5.8125 33.546875 5.8125 39.890625 
Q 5.8125 47.609375 11.28125 51.796875 
Q 16.75 56 26.8125 56 
Q 31.78125 56 36.171875 55.265625 
Q 40.578125 54.546875 44.28125 53.078125 
z
" id="DejaVuSans-115"/>
      <path d="M 8.5 21.578125 
L 8.5 54.6875 
L 17.484375 54.6875 
L 17.484375 21.921875 
Q 17.484375 14.15625 20.5 10.265625 
Q 23.53125 6.390625 29.59375 6.390625 
Q 36.859375 6.390625 41.078125 11.03125 
Q 45.3125 15.671875 45.3125 23.6875 
L 45.3125 54.6875 
L 54.296875 54.6875 
L 54.296875 0 
L 45.3125 0 
L 45.3125 8.40625 
Q 42.046875 3.421875 37.71875 1 
Q 33.40625 -1.421875 27.6875 -1.421875 
Q 18.265625 -1.421875 13.375 4.4375 
Q 8.5 10.296875 8.5 21.578125 
z
M 31.109375 56 
z
" id="DejaVuSans-117"/>
      <path d="M 9.421875 75.984375 
L 18.40625 75.984375 
L 18.40625 0 
L 9.421875 0 
z
" id="DejaVuSans-108"/>
      <path d="M 18.3125 70.21875 
L 18.3125 54.6875 
L 36.8125 54.6875 
L 36.8125 47.703125 
L 18.3125 47.703125 
L 18.3125 18.015625 
Q 18.3125 11.328125 20.140625 9.421875 
Q 21.96875 7.515625 27.59375 7.515625 
L 36.8125 7.515625 
L 36.8125 0 
L 27.59375 0 
Q 17.1875 0 13.234375 3.875 
Q 9.28125 7.765625 9.28125 18.015625 
L 9.28125 47.703125 
L 2.6875 47.703125 
L 2.6875 54.6875 
L 9.28125 54.6875 
L 9.28125 70.21875 
z
" id="DejaVuSans-116"/>
     </defs>
     <g transform="translate(29.778125 207.212375)rotate(-90)scale(0.1 -0.1)">
      <use xlink:href="#DejaVuSans-84"/>
      <use x="61.083984" xlink:href="#DejaVuSans-104"/>
      <use x="124.462891" xlink:href="#DejaVuSans-114"/>
      <use x="165.544922" xlink:href="#DejaVuSans-111"/>
      <use x="226.726562" xlink:href="#DejaVuSans-119"/>
      <use x="308.513672" xlink:href="#DejaVuSans-32"/>
      <use x="340.300781" xlink:href="#DejaVuSans-82"/>
      <use x="409.720703" xlink:href="#DejaVuSans-101"/>
      <use x="471.244141" xlink:href="#DejaVuSans-115"/>
      <use x="523.34375" xlink:href="#DejaVuSans-117"/>
      <use x="586.722656" xlink:href="#DejaVuSans-108"/>
      <use x="614.505859" xlink:href="#DejaVuSans-116"/>
     </g>
    </g>
   </g>
   <g id="patch_3">
    <path d="M 57.6 307.584 
L 57.6 41.472 
" style="fill:none;stroke:#000000;stroke-linecap:square;stroke-linejoin:miter;stroke-width:0.8;"/>
   </g>
   <g id="patch_4">
    <path d="M 414.72 307.584 
L 414.72 41.472 
" style="fill:none;stroke:#000000;stroke-linecap:square;stroke-linejoin:miter;stroke-width:0.8;"/>
   </g>
   <g id="patch_5">
    <path d="M 57.6 307.584 
L 414.72 307.584 
" style="fill:none;stroke:#000000;stroke-linecap:square;stroke-linejoin:miter;stroke-width:0.8;"/>
   </g>
   <g id="patch_6">
    <path d="M 57.6 41.472 
L 414.72 41.472 
" style="fill:none;stroke:#000000;stroke-linecap:square;stroke-linejoin:miter;stroke-width:0.8;"/>
   </g>
   <g id="line2d_34">
    <path clip-path="url(#p8fdea5c044)" d="M 73.832727 127.831839 
L 74.853654 264.683064 
L 75.87458 249.624757 
L 76.895506 176.097025 
L 77.916432 275.370348 
L 78.937358 261.461768 
L 79.958285 246.406031 
L 80.979211 193.705404 
L 82.000137 253.913325 
L 83.021063 275.40233 
L 84.04199 218.557484 
L 85.062916 218.557484 
L 86.083842 218.557484 
L 87.104768 218.557484 
L 88.125695 218.557484 
L 89.146621 218.557484 
L 90.167547 218.557484 
L 91.188473 218.557484 
L 92.2094 218.557484 
L 93.230326 218.557484 
L 94.251252 218.557484 
L 95.272178 218.557484 
L 96.293105 218.557484 
L 97.314031 218.557484 
L 98.334957 218.557484 
L 99.355883 218.557484 
L 100.37681 218.557484 
L 101.397736 218.557484 
L 102.418662 218.557484 
L 103.439588 218.557484 
L 104.460515 218.557484 
L 105.481441 218.557484 
L 106.502367 218.557484 
L 107.523293 218.557484 
L 108.54422 218.557484 
L 109.565146 218.557484 
L 110.586072 170.713355 
L 111.606998 279.623629 
L 112.627925 266.794747 
L 113.648851 251.774079 
L 114.669777 268.068138 
L 115.690703 218.557484 
L 116.71163 218.557484 
L 117.732556 218.557484 
L 118.753482 218.557484 
L 119.774408 218.557484 
L 120.795334 218.557484 
L 121.816261 218.557484 
L 122.837187 218.557484 
L 123.858113 218.557484 
L 124.879039 218.557484 
L 125.899966 218.557484 
L 126.920892 218.557484 
L 127.941818 218.557484 
L 128.962744 218.557484 
L 129.983671 218.557484 
L 131.004597 218.557484 
L 132.025523 218.557484 
L 133.046449 218.557484 
L 134.067376 218.557484 
L 135.088302 218.557484 
L 136.109228 218.557484 
L 137.130154 218.557484 
L 138.151081 218.557484 
L 139.172007 218.557484 
L 140.192933 218.557484 
L 141.213859 218.557484 
L 142.234786 218.557484 
L 143.255712 218.557484 
L 144.276638 184.224131 
L 145.297564 263.543867 
L 146.318491 247.519325 
L 147.339417 166.907881 
L 148.360343 283.940434 
L 149.381269 274.355146 
L 150.402196 260.447443 
L 151.423122 245.371335 
L 152.444048 195.742156 
L 153.464974 251.762154 
L 154.485901 267.195999 
L 155.506827 218.557484 
L 156.527753 218.557484 
L 157.548679 218.557484 
L 158.569605 218.557484 
L 159.590532 218.557484 
L 160.611458 218.557484 
L 161.632384 218.557484 
L 162.65331 218.557484 
L 163.674237 218.557484 
L 164.695163 218.557484 
L 165.716089 218.557484 
L 166.737015 218.557484 
L 167.757942 218.557484 
L 168.778868 218.557484 
L 169.799794 218.557484 
L 170.82072 218.557484 
L 171.841647 218.557484 
L 172.862573 218.557484 
L 173.883499 218.557484 
L 174.904425 218.557484 
L 175.925352 218.557484 
L 176.946278 218.557484 
L 177.967204 218.557484 
L 178.98813 218.557484 
L 180.009057 218.557484 
L 181.029983 218.557484 
L 182.050909 218.557484 
L 183.071835 239.718054 
L 184.092762 218.557484 
L 185.113688 218.557484 
L 186.134614 218.557484 
L 187.15554 218.557484 
L 188.176467 218.557484 
L 189.197393 218.557484 
L 190.218319 218.557484 
L 191.239245 218.557484 
L 192.260172 218.557484 
L 193.281098 218.557484 
L 194.302024 218.557484 
" style="fill:none;stroke:#ff5722;stroke-linecap:square;stroke-width:1.5;"/>
   </g>
   <g id="text_18">
    <!-- Reinforcement Learning Training Performance -->
    <defs>
     <path d="M 9.421875 54.6875 
L 18.40625 54.6875 
L 18.40625 0 
L 9.421875 0 
z
M 9.421875 75.984375 
L 18.40625 75.984375 
L 18.40625 64.59375 
L 9.421875 64.59375 
z
" id="DejaVuSans-105"/>
     <path d="M 54.890625 33.015625 
L 54.890625 0 
L 45.90625 0 
L 45.90625 32.71875 
Q 45.90625 40.484375 42.875 44.328125 
Q 39.84375 48.1875 33.796875 48.1875 
Q 26.515625 48.1875 22.3125 43.546875 
Q 18.109375 38.921875 18.109375 30.90625 
L 18.109375 0 
L 9.078125 0 
L 9.078125 54.6875 
L 18.109375 54.6875 
L 18.109375 46.1875 
Q 21.34375 51.125 25.703125 53.5625 
Q 30.078125 56 35.796875 56 
Q 45.21875 56 50.046875 50.171875 
Q 54.890625 44.34375 54.890625 33.015625 
z
" id="DejaVuSans-110"/>
     <path d="M 37.109375 75.984375 
L 37.109375 68.5 
L 28.515625 68.5 
Q 23.6875 68.5 21.796875 66.546875 
Q 19.921875 64.59375 19.921875 59.515625 
L 19.921875 54.6875 
L 34.71875 54.6875 
L 34.71875 47.703125 
L 19.921875 47.703125 
L 19.921875 0 
L 10.890625 0 
L 10.890625 47.703125 
L 2.296875 47.703125 
L 2.296875 54.6875 
L 10.890625 54.6875 
L 10.890625 58.5 
Q 10.890625 67.625 15.140625 71.796875 
Q 19.390625 75.984375 28.609375 75.984375 
z
" id="DejaVuSans-102"/>
     <path d="M 48.78125 52.59375 
L 48.78125 44.1875 
Q 44.96875 46.296875 41.140625 47.34375 
Q 37.3125 48.390625 33.40625 48.390625 
Q 24.65625 48.390625 19.8125 42.84375 
Q 14.984375 37.3125 14.984375 27.296875 
Q 14.984375 17.28125 19.8125 11.734375 
Q 24.65625 6.203125 33.40625 6.203125 
Q 37.3125 6.203125 41.140625 7.25 
Q 44.96875 8.296875 48.78125 10.40625 
L 48.78125 2.09375 
Q 45.015625 0.34375 40.984375 -0.53125 
Q 36.96875 -1.421875 32.421875 -1.421875 
Q 20.0625 -1.421875 12.78125 6.34375 
Q 5.515625 14.109375 5.515625 27.296875 
Q 5.515625 40.671875 12.859375 48.328125 
Q 20.21875 56 33.015625 56 
Q 37.15625 56 41.109375 55.140625 
Q 45.0625 54.296875 48.78125 52.59375 
z
" id="DejaVuSans-99"/>
     <path d="M 52 44.1875 
Q 55.375 50.25 60.0625 53.125 
Q 64.75 56 71.09375 56 
Q 79.640625 56 84.28125 50.015625 
Q 88.921875 44.046875 88.921875 33.015625 
L 88.921875 0 
L 79.890625 0 
L 79.890625 32.71875 
Q 79.890625 40.578125 77.09375 44.375 
Q 74.3125 48.1875 68.609375 48.1875 
Q 61.625 48.1875 57.5625 43.546875 
Q 53.515625 38.921875 53.515625 30.90625 
L 53.515625 0 
L 44.484375 0 
L 44.484375 32.71875 
Q 44.484375 40.625 41.703125 44.40625 
Q 38.921875 48.1875 33.109375 48.1875 
Q 26.21875 48.1875 22.15625 43.53125 
Q 18.109375 38.875 18.109375 30.90625 
L 18.109375 0 
L 9.078125 0 
L 9.078125 54.6875 
L 18.109375 54.6875 
L 18.109375 46.1875 
Q 21.1875 51.21875 25.484375 53.609375 
Q 29.78125 56 35.6875 56 
Q 41.65625 56 45.828125 52.96875 
Q 50 49.953125 52 44.1875 
z
" id="DejaVuSans-109"/>
     <path d="M 9.8125 72.90625 
L 19.671875 72.90625 
L 19.671875 8.296875 
L 55.171875 8.296875 
L 55.171875 0 
L 9.8125 0 
z
" id="DejaVuSans-76"/>
     <path d="M 34.28125 27.484375 
Q 23.390625 27.484375 19.1875 25 
Q 14.984375 22.515625 14.984375 16.5 
Q 14.984375 11.71875 18.140625 8.90625 
Q 21.296875 6.109375 26.703125 6.109375 
Q 34.1875 6.109375 38.703125 11.40625 
Q 43.21875 16.703125 43.21875 25.484375 
L 43.21875 27.484375 
z
M 52.203125 31.203125 
L 52.203125 0 
L 43.21875 0 
L 43.21875 8.296875 
Q 40.140625 3.328125 35.546875 0.953125 
Q 30.953125 -1.421875 24.3125 -1.421875 
Q 15.921875 -1.421875 10.953125 3.296875 
Q 6 8.015625 6 15.921875 
Q 6 25.140625 12.171875 29.828125 
Q 18.359375 34.515625 30.609375 34.515625 
L 43.21875 34.515625 
L 43.21875 35.40625 
Q 43.21875 41.609375 39.140625 45 
Q 35.0625 48.390625 27.6875 48.390625 
Q 23 48.390625 18.546875 47.265625 
Q 14.109375 46.140625 10.015625 43.890625 
L 10.015625 52.203125 
Q 14.9375 54.109375 19.578125 55.046875 
Q 24.21875 56 28.609375 56 
Q 40.484375 56 46.34375 49.84375 
Q 52.203125 43.703125 52.203125 31.203125 
z
" id="DejaVuSans-97"/>
     <path d="M 45.40625 27.984375 
Q 45.40625 37.75 41.375 43.109375 
Q 37.359375 48.484375 30.078125 48.484375 
Q 22.859375 48.484375 18.828125 43.109375 
Q 14.796875 37.75 14.796875 27.984375 
Q 14.796875 18.265625 18.828125 12.890625 
Q 22.859375 7.515625 30.078125 7.515625 
Q 37.359375 7.515625 41.375 12.890625 
Q 45.40625 18.265625 45.40625 27.984375 
z
M 54.390625 6.78125 
Q 54.390625 -7.171875 48.1875 -13.984375 
Q 42 -20.796875 29.203125 -20.796875 
Q 24.46875 -20.796875 20.265625 -20.09375 
Q 16.0625 -19.390625 12.109375 -17.921875 
L 12.109375 -9.1875 
Q 16.0625 -11.328125 19.921875 -12.34375 
Q 23.78125 -13.375 27.78125 -13.375 
Q 36.625 -13.375 41.015625 -8.765625 
Q 45.40625 -4.15625 45.40625 5.171875 
L 45.40625 9.625 
Q 42.625 4.78125 38.28125 2.390625 
Q 33.9375 0 27.875 0 
Q 17.828125 0 11.671875 7.65625 
Q 5.515625 15.328125 5.515625 27.984375 
Q 5.515625 40.671875 11.671875 48.328125 
Q 17.828125 56 27.875 56 
Q 33.9375 56 38.28125 53.609375 
Q 42.625 51.21875 45.40625 46.390625 
L 45.40625 54.6875 
L 54.390625 54.6875 
z
" id="DejaVuSans-103"/>
     <path d="M 19.671875 64.796875 
L 19.671875 37.40625 
L 32.078125 37.40625 
Q 38.96875 37.40625 42.71875 40.96875 
Q 46.484375 44.53125 46.484375 51.125 
Q 46.484375 57.671875 42.71875 61.234375 
Q 38.96875 64.796875 32.078125 64.796875 
z
M 9.8125 72.90625 
L 32.078125 72.90625 
Q 44.34375 72.90625 50.609375 67.359375 
Q 56.890625 61.8125 56.890625 51.125 
Q 56.890625 40.328125 50.609375 34.8125 
Q 44.34375 29.296875 32.078125 29.296875 
L 19.671875 29.296875 
L 19.671875 0 
L 9.8125 0 
z
" id="DejaVuSans-80"/>
    </defs>
    <g transform="translate(97.045312 35.472)scale(0.12 -0.12)">
     <use xlink:href="#DejaVuSans-82"/>
     <use x="69.419922" xlink:href="#DejaVuSans-101"/>
     <use x="130.943359" xlink:href="#DejaVuSans-105"/>
     <use x="158.726562" xlink:href="#DejaVuSans-110"/>
     <use x="222.105469" xlink:href="#DejaVuSans-102"/>
     <use x="257.310547" xlink:href="#DejaVuSans-111"/>
     <use x="318.492188" xlink:href="#DejaVuSans-114"/>
     <use x="359.574219" xlink:href="#DejaVuSans-99"/>
     <use x="414.554688" xlink:href="#DejaVuSans-101"/>
     <use x="476.078125" xlink:href="#DejaVuSans-109"/>
     <use x="573.490234" xlink:href="#DejaVuSans-101"/>
     <use x="635.013672" xlink:href="#DejaVuSans-110"/>
     <use x="698.392578" xlink:href="#DejaVuSans-116"/>
     <use x="737.601562" xlink:href="#DejaVuSans-32"/>
     <use x="769.388672" xlink:href="#DejaVuSans-76"/>
     <use x="825.085938" xlink:href="#DejaVuSans-101"/>
     <use x="886.609375" xlink:href="#DejaVuSans-97"/>
     <use x="947.888672" xlink:href="#DejaVuSans-114"/>
     <use x="988.986328" xlink:href="#DejaVuSans-110"/>
     <use x="1052.365234" xlink:href="#DejaVuSans-105"/>
     <use x="1080.148438" xlink:href="#DejaVuSans-110"/>
     <use x="1143.527344" xlink:href="#DejaVuSans-103"/>
     <use x="1207.003906" xlink:href="#DejaVuSans-32"/>
     <use x="1238.791016" xlink:href="#DejaVuSans-84"/>
     <use x="1299.65625" xlink:href="#DejaVuSans-114"/>
     <use x="1340.769531" xlink:href="#DejaVuSans-97"/>
     <use x="1402.048828" xlink:href="#DejaVuSans-105"/>
     <use x="1429.832031" xlink:href="#DejaVuSans-110"/>
     <use x="1493.210938" xlink:href="#DejaVuSans-105"/>
     <use x="1520.994141" xlink:href="#DejaVuSans-110"/>
     <use x="1584.373047" xlink:href="#DejaVuSans-103"/>
     <use x="1647.849609" xlink:href="#DejaVuSans-32"/>
     <use x="1679.636719" xlink:href="#DejaVuSans-80"/>
     <use x="1739.892578" xlink:href="#DejaVuSans-101"/>
     <use x="1801.416016" xlink:href="#DejaVuSans-114"/>
     <use x="1842.529297" xlink:href="#DejaVuSans-102"/>
     <use x="1877.734375" xlink:href="#DejaVuSans-111"/>
     <use x="1938.916016" xlink:href="#DejaVuSans-114"/>
     <use x="1980.013672" xlink:href="#DejaVuSans-109"/>
     <use x="2077.425781" xlink:href="#DejaVuSans-97"/>
     <use x="2138.705078" xlink:href="#DejaVuSans-110"/>
     <use x="2202.083984" xlink:href="#DejaVuSans-99"/>
     <use x="2257.064453" xlink:href="#DejaVuSans-101"/>
    </g>
   </g>
   <g id="line2d_35">
    <path clip-path="url(#p8fdea5c044)" d="M 73.832727 101.312967 
L 140.192933 101.312967 
L 141.213859 182.090244 
L 142.234786 183.543569 
L 143.255712 186.46675 
L 144.276638 187.925481 
L 145.297564 187.914011 
L 147.339417 190.840436 
L 148.360343 190.828809 
L 149.381269 192.298321 
L 150.402196 192.289091 
L 151.423122 193.759668 
L 154.485901 193.740238 
L 155.506827 195.218117 
L 161.632384 195.193829 
L 162.65331 196.677334 
L 224.929811 196.64775 
L 225.950738 198.136331 
L 226.971664 196.652623 
L 233.097221 196.647859 
L 234.118148 198.136331 
L 235.139074 196.652733 
L 241.264631 196.647985 
L 242.285557 198.136331 
L 243.306484 196.652842 
L 249.432041 196.648094 
L 250.452967 198.136331 
L 251.473894 196.652952 
L 258.620377 196.647389 
L 259.641304 198.136316 
L 260.66223 196.65231 
L 266.787787 196.647515 
L 267.808714 198.136316 
L 268.82964 196.652419 
L 274.955197 196.64764 
L 275.976123 198.136316 
L 276.99705 196.652529 
L 283.122607 196.647765 
L 284.143533 198.136331 
L 285.16446 196.652639 
L 291.290017 196.647875 
L 292.310943 198.136331 
L 293.33187 196.652748 
L 299.457427 196.648 
L 300.478353 198.136331 
L 301.49928 196.652858 
L 307.624837 196.64811 
L 308.645763 198.136331 
L 309.66669 196.652968 
L 316.813173 196.647405 
L 317.834099 198.136316 
L 318.855026 196.652325 
L 324.980583 196.64753 
L 326.001509 198.136316 
L 327.022436 196.652435 
L 333.147993 196.64764 
L 334.168919 198.136316 
L 335.189846 196.652545 
L 341.315403 196.647765 
L 342.336329 198.136331 
L 343.357256 196.652654 
L 349.482813 196.647891 
L 350.503739 198.136331 
L 351.524666 196.652764 
L 357.650223 196.648 
L 358.671149 198.136331 
L 359.692075 196.652874 
L 362.754854 196.650539 
L 362.754854 196.650539 
" style="fill:none;stroke:#558b2f;stroke-linecap:square;stroke-width:1.5;"/>
   </g>
   <g id="legend_1">
    <g id="patch_7">
     <path d="M 334.815313 122.862625 
L 407.72 122.862625 
Q 409.72 122.862625 409.72 120.862625 
L 409.72 48.472 
Q 409.72 46.472 407.72 46.472 
L 334.815313 46.472 
Q 332.815313 46.472 332.815313 48.472 
L 332.815313 120.862625 
Q 332.815313 122.862625 334.815313 122.862625 
z
" style="fill:#ffffff;opacity:0.8;stroke:#cccccc;stroke-linejoin:miter;"/>
    </g>
    <g id="line2d_36">
     <path d="M 336.815313 54.570438 
L 356.815313 54.570438 
" style="fill:none;stroke:#558b2f;stroke-linecap:square;stroke-width:1.5;"/>
    </g>
    <g id="line2d_37"/>
    <g id="text_19">
     <!-- Model A -->
     <defs>
      <path d="M 9.8125 72.90625 
L 24.515625 72.90625 
L 43.109375 23.296875 
L 61.8125 72.90625 
L 76.515625 72.90625 
L 76.515625 0 
L 66.890625 0 
L 66.890625 64.015625 
L 48.09375 14.015625 
L 38.1875 14.015625 
L 19.390625 64.015625 
L 19.390625 0 
L 9.8125 0 
z
" id="DejaVuSans-77"/>
      <path d="M 45.40625 46.390625 
L 45.40625 75.984375 
L 54.390625 75.984375 
L 54.390625 0 
L 45.40625 0 
L 45.40625 8.203125 
Q 42.578125 3.328125 38.25 0.953125 
Q 33.9375 -1.421875 27.875 -1.421875 
Q 17.96875 -1.421875 11.734375 6.484375 
Q 5.515625 14.40625 5.515625 27.296875 
Q 5.515625 40.1875 11.734375 48.09375 
Q 17.96875 56 27.875 56 
Q 33.9375 56 38.25 53.625 
Q 42.578125 51.265625 45.40625 46.390625 
z
M 14.796875 27.296875 
Q 14.796875 17.390625 18.875 11.75 
Q 22.953125 6.109375 30.078125 6.109375 
Q 37.203125 6.109375 41.296875 11.75 
Q 45.40625 17.390625 45.40625 27.296875 
Q 45.40625 37.203125 41.296875 42.84375 
Q 37.203125 48.484375 30.078125 48.484375 
Q 22.953125 48.484375 18.875 42.84375 
Q 14.796875 37.203125 14.796875 27.296875 
z
" id="DejaVuSans-100"/>
      <path d="M 34.1875 63.1875 
L 20.796875 26.90625 
L 47.609375 26.90625 
z
M 28.609375 72.90625 
L 39.796875 72.90625 
L 67.578125 0 
L 57.328125 0 
L 50.6875 18.703125 
L 17.828125 18.703125 
L 11.1875 0 
L 0.78125 0 
z
" id="DejaVuSans-65"/>
     </defs>
     <g transform="translate(364.815313 58.070438)scale(0.1 -0.1)">
      <use xlink:href="#DejaVuSans-77"/>
      <use x="86.279297" xlink:href="#DejaVuSans-111"/>
      <use x="147.460938" xlink:href="#DejaVuSans-100"/>
      <use x="210.9375" xlink:href="#DejaVuSans-101"/>
      <use x="272.460938" xlink:href="#DejaVuSans-108"/>
      <use x="300.244141" xlink:href="#DejaVuSans-32"/>
      <use x="332.03125" xlink:href="#DejaVuSans-65"/>
     </g>
    </g>
    <g id="line2d_38">
     <path d="M 336.815313 69.248563 
L 356.815313 69.248563 
" style="fill:none;stroke:#ff5722;stroke-linecap:square;stroke-width:1.5;"/>
    </g>
    <g id="line2d_39"/>
    <g id="text_20">
     <!-- Model B -->
     <defs>
      <path d="M 19.671875 34.8125 
L 19.671875 8.109375 
L 35.5 8.109375 
Q 43.453125 8.109375 47.28125 11.40625 
Q 51.125 14.703125 51.125 21.484375 
Q 51.125 28.328125 47.28125 31.5625 
Q 43.453125 34.8125 35.5 34.8125 
z
M 19.671875 64.796875 
L 19.671875 42.828125 
L 34.28125 42.828125 
Q 41.5 42.828125 45.03125 45.53125 
Q 48.578125 48.25 48.578125 53.8125 
Q 48.578125 59.328125 45.03125 62.0625 
Q 41.5 64.796875 34.28125 64.796875 
z
M 9.8125 72.90625 
L 35.015625 72.90625 
Q 46.296875 72.90625 52.390625 68.21875 
Q 58.5 63.53125 58.5 54.890625 
Q 58.5 48.1875 55.375 44.234375 
Q 52.25 40.28125 46.1875 39.3125 
Q 53.46875 37.75 57.5 32.78125 
Q 61.53125 27.828125 61.53125 20.40625 
Q 61.53125 10.640625 54.890625 5.3125 
Q 48.25 0 35.984375 0 
L 9.8125 0 
z
" id="DejaVuSans-66"/>
     </defs>
     <g transform="translate(364.815313 72.748563)scale(0.1 -0.1)">
      <use xlink:href="#DejaVuSans-77"/>
      <use x="86.279297" xlink:href="#DejaVuSans-111"/>
      <use x="147.460938" xlink:href="#DejaVuSans-100"/>
      <use x="210.9375" xlink:href="#DejaVuSans-101"/>
      <use x="272.460938" xlink:href="#DejaVuSans-108"/>
      <use x="300.244141" xlink:href="#DejaVuSans-32"/>
      <use x="332.03125" xlink:href="#DejaVuSans-66"/>
     </g>
    </g>
    <g id="line2d_40">
     <path d="M 336.815313 83.926688 
L 356.815313 83.926688 
" style="fill:none;stroke:#ff9800;stroke-linecap:square;stroke-width:1.5;"/>
    </g>
    <g id="line2d_41"/>
    <g id="text_21">
     <!-- Model C -->
     <defs>
      <path d="M 64.40625 67.28125 
L 64.40625 56.890625 
Q 59.421875 61.53125 53.78125 63.8125 
Q 48.140625 66.109375 41.796875 66.109375 
Q 29.296875 66.109375 22.65625 58.46875 
Q 16.015625 50.828125 16.015625 36.375 
Q 16.015625 21.96875 22.65625 14.328125 
Q 29.296875 6.6875 41.796875 6.6875 
Q 48.140625 6.6875 53.78125 8.984375 
Q 59.421875 11.28125 64.40625 15.921875 
L 64.40625 5.609375 
Q 59.234375 2.09375 53.4375 0.328125 
Q 47.65625 -1.421875 41.21875 -1.421875 
Q 24.65625 -1.421875 15.125 8.703125 
Q 5.609375 18.84375 5.609375 36.375 
Q 5.609375 53.953125 15.125 64.078125 
Q 24.65625 74.21875 41.21875 74.21875 
Q 47.75 74.21875 53.53125 72.484375 
Q 59.328125 70.75 64.40625 67.28125 
z
" id="DejaVuSans-67"/>
     </defs>
     <g transform="translate(364.815313 87.426688)scale(0.1 -0.1)">
      <use xlink:href="#DejaVuSans-77"/>
      <use x="86.279297" xlink:href="#DejaVuSans-111"/>
      <use x="147.460938" xlink:href="#DejaVuSans-100"/>
      <use x="210.9375" xlink:href="#DejaVuSans-101"/>
      <use x="272.460938" xlink:href="#DejaVuSans-108"/>
      <use x="300.244141" xlink:href="#DejaVuSans-32"/>
      <use x="332.03125" xlink:href="#DejaVuSans-67"/>
     </g>
    </g>
    <g id="line2d_42">
     <path d="M 336.815313 98.604813 
L 356.815313 98.604813 
" style="fill:none;stroke:#4caf50;stroke-linecap:square;stroke-width:1.5;"/>
    </g>
    <g id="line2d_43"/>
    <g id="text_22">
     <!-- Model D -->
     <defs>
      <path d="M 19.671875 64.796875 
L 19.671875 8.109375 
L 31.59375 8.109375 
Q 46.6875 8.109375 53.6875 14.9375 
Q 60.6875 21.78125 60.6875 36.53125 
Q 60.6875 51.171875 53.6875 57.984375 
Q 46.6875 64.796875 31.59375 64.796875 
z
M 9.8125 72.90625 
L 30.078125 72.90625 
Q 51.265625 72.90625 61.171875 64.09375 
Q 71.09375 55.28125 71.09375 36.53125 
Q 71.09375 17.671875 61.125 8.828125 
Q 51.171875 0 30.078125 0 
L 9.8125 0 
z
" id="DejaVuSans-68"/>
     </defs>
     <g transform="translate(364.815313 102.104813)scale(0.1 -0.1)">
      <use xlink:href="#DejaVuSans-77"/>
      <use x="86.279297" xlink:href="#DejaVuSans-111"/>
      <use x="147.460938" xlink:href="#DejaVuSans-100"/>
      <use x="210.9375" xlink:href="#DejaVuSans-101"/>
      <use x="272.460938" xlink:href="#DejaVuSans-108"/>
      <use x="300.244141" xlink:href="#DejaVuSans-32"/>
      <use x="332.03125" xlink:href="#DejaVuSans-68"/>
     </g>
    </g>
    <g id="line2d_44">
     <path d="M 336.815313 113.282938 
L 356.815313 113.282938 
" style="fill:none;stroke:#1f77b4;stroke-linecap:square;stroke-width:1.5;"/>
    </g>
    <g id="line2d_45"/>
    <g id="text_23">
     <!-- Model F -->
     <defs>
      <path d="M 9.8125 72.90625 
L 51.703125 72.90625 
L 51.703125 64.59375 
L 19.671875 64.59375 
L 19.671875 43.109375 
L 48.578125 43.109375 
L 48.578125 34.8125 
L 19.671875 34.8125 
L 19.671875 0 
L 9.8125 0 
z
" id="DejaVuSans-70"/>
     </defs>
     <g transform="translate(364.815313 116.782938)scale(0.1 -0.1)">
      <use xlink:href="#DejaVuSans-77"/>
      <use x="86.279297" xlink:href="#DejaVuSans-111"/>
      <use x="147.460938" xlink:href="#DejaVuSans-100"/>
      <use x="210.9375" xlink:href="#DejaVuSans-101"/>
      <use x="272.460938" xlink:href="#DejaVuSans-108"/>
      <use x="300.244141" xlink:href="#DejaVuSans-32"/>
      <use x="332.03125" xlink:href="#DejaVuSans-70"/>
     </g>
    </g>
   </g>
  </g>
 </g>
 <defs>
  <clipPath id="p8fdea5c044">
   <rect height="266.112" width="357.12" x="57.6" y="41.472"/>
  </clipPath>
 </defs>
</svg>
