<?xml version="1.0" encoding="utf-8" standalone="no"?>
<!DOCTYPE svg PUBLIC "-//W3C//DTD SVG 1.1//EN"
  "http://www.w3.org/Graphics/SVG/1.1/DTD/svg11.dtd">
<!-- Created with matplotlib (https://matplotlib.org/) -->
<svg height="288pt" version="1.1" viewBox="0 0 432 288" width="432pt" xmlns="http://www.w3.org/2000/svg" xmlns:xlink="http://www.w3.org/1999/xlink">
 <defs>
  <style type="text/css">
*{stroke-linecap:butt;stroke-linejoin:round;white-space:pre;}
  </style>
 </defs>
 <g id="figure_1">
  <g id="patch_1">
   <path d="M 0 288 
L 432 288 
L 432 0 
L 0 0 
z
" style="fill:#ffffff;"/>
  </g>
  <g id="axes_1">
   <g id="patch_2">
    <path d="M 54 252 
L 388.8 252 
L 388.8 34.56 
L 54 34.56 
z
" style="fill:#ffffff;"/>
   </g>
   <g id="matplotlib.axis_1">
    <g id="xtick_1">
     <g id="line2d_1">
      <defs>
       <path d="M 0 0 
L 0 3.5 
" id="m146758393a" style="stroke:#000000;stroke-width:0.8;"/>
      </defs>
      <g>
       <use style="stroke:#000000;stroke-width:0.8;" x="65.700151" xlink:href="#m146758393a" y="252"/>
      </g>
     </g>
     <g id="text_1">
      <!-- 0 -->
      <defs>
       <path d="M 31.78125 66.40625 
Q 24.171875 66.40625 20.328125 58.90625 
Q 16.5 51.421875 16.5 36.375 
Q 16.5 21.390625 20.328125 13.890625 
Q 24.171875 6.390625 31.78125 6.390625 
Q 39.453125 6.390625 43.28125 13.890625 
Q 47.125 21.390625 47.125 36.375 
Q 47.125 51.421875 43.28125 58.90625 
Q 39.453125 66.40625 31.78125 66.40625 
z
M 31.78125 74.21875 
Q 44.046875 74.21875 50.515625 64.515625 
Q 56.984375 54.828125 56.984375 36.375 
Q 56.984375 17.96875 50.515625 8.265625 
Q 44.046875 -1.421875 31.78125 -1.421875 
Q 19.53125 -1.421875 13.0625 8.265625 
Q 6.59375 17.96875 6.59375 36.375 
Q 6.59375 54.828125 13.0625 64.515625 
Q 19.53125 74.21875 31.78125 74.21875 
z
" id="DejaVuSans-48"/>
      </defs>
      <g transform="translate(62.518901 266.598437)scale(0.1 -0.1)">
       <use xlink:href="#DejaVuSans-48"/>
      </g>
     </g>
    </g>
    <g id="xtick_2">
     <g id="line2d_2">
      <g>
       <use style="stroke:#000000;stroke-width:0.8;" x="104.681979" xlink:href="#m146758393a" y="252"/>
      </g>
     </g>
     <g id="text_2">
      <!-- 100 -->
      <defs>
       <path d="M 12.40625 8.296875 
L 28.515625 8.296875 
L 28.515625 63.921875 
L 10.984375 60.40625 
L 10.984375 69.390625 
L 28.421875 72.90625 
L 38.28125 72.90625 
L 38.28125 8.296875 
L 54.390625 8.296875 
L 54.390625 0 
L 12.40625 0 
z
" id="DejaVuSans-49"/>
      </defs>
      <g transform="translate(95.138229 266.598437)scale(0.1 -0.1)">
       <use xlink:href="#DejaVuSans-49"/>
       <use x="63.623047" xlink:href="#DejaVuSans-48"/>
       <use x="127.246094" xlink:href="#DejaVuSans-48"/>
      </g>
     </g>
    </g>
    <g id="xtick_3">
     <g id="line2d_3">
      <g>
       <use style="stroke:#000000;stroke-width:0.8;" x="143.663807" xlink:href="#m146758393a" y="252"/>
      </g>
     </g>
     <g id="text_3">
      <!-- 200 -->
      <defs>
       <path d="M 19.1875 8.296875 
L 53.609375 8.296875 
L 53.609375 0 
L 7.328125 0 
L 7.328125 8.296875 
Q 12.9375 14.109375 22.625 23.890625 
Q 32.328125 33.6875 34.8125 36.53125 
Q 39.546875 41.84375 41.421875 45.53125 
Q 43.3125 49.21875 43.3125 52.78125 
Q 43.3125 58.59375 39.234375 62.25 
Q 35.15625 65.921875 28.609375 65.921875 
Q 23.96875 65.921875 18.8125 64.3125 
Q 13.671875 62.703125 7.8125 59.421875 
L 7.8125 69.390625 
Q 13.765625 71.78125 18.9375 73 
Q 24.125 74.21875 28.421875 74.21875 
Q 39.75 74.21875 46.484375 68.546875 
Q 53.21875 62.890625 53.21875 53.421875 
Q 53.21875 48.921875 51.53125 44.890625 
Q 49.859375 40.875 45.40625 35.40625 
Q 44.1875 33.984375 37.640625 27.21875 
Q 31.109375 20.453125 19.1875 8.296875 
z
" id="DejaVuSans-50"/>
      </defs>
      <g transform="translate(134.120057 266.598437)scale(0.1 -0.1)">
       <use xlink:href="#DejaVuSans-50"/>
       <use x="63.623047" xlink:href="#DejaVuSans-48"/>
       <use x="127.246094" xlink:href="#DejaVuSans-48"/>
      </g>
     </g>
    </g>
    <g id="xtick_4">
     <g id="line2d_4">
      <g>
       <use style="stroke:#000000;stroke-width:0.8;" x="182.645635" xlink:href="#m146758393a" y="252"/>
      </g>
     </g>
     <g id="text_4">
      <!-- 300 -->
      <defs>
       <path d="M 40.578125 39.3125 
Q 47.65625 37.796875 51.625 33 
Q 55.609375 28.21875 55.609375 21.1875 
Q 55.609375 10.40625 48.1875 4.484375 
Q 40.765625 -1.421875 27.09375 -1.421875 
Q 22.515625 -1.421875 17.65625 -0.515625 
Q 12.796875 0.390625 7.625 2.203125 
L 7.625 11.71875 
Q 11.71875 9.328125 16.59375 8.109375 
Q 21.484375 6.890625 26.8125 6.890625 
Q 36.078125 6.890625 40.9375 10.546875 
Q 45.796875 14.203125 45.796875 21.1875 
Q 45.796875 27.640625 41.28125 31.265625 
Q 36.765625 34.90625 28.71875 34.90625 
L 20.21875 34.90625 
L 20.21875 43.015625 
L 29.109375 43.015625 
Q 36.375 43.015625 40.234375 45.921875 
Q 44.09375 48.828125 44.09375 54.296875 
Q 44.09375 59.90625 40.109375 62.90625 
Q 36.140625 65.921875 28.71875 65.921875 
Q 24.65625 65.921875 20.015625 65.03125 
Q 15.375 64.15625 9.8125 62.3125 
L 9.8125 71.09375 
Q 15.4375 72.65625 20.34375 73.4375 
Q 25.25 74.21875 29.59375 74.21875 
Q 40.828125 74.21875 47.359375 69.109375 
Q 53.90625 64.015625 53.90625 55.328125 
Q 53.90625 49.265625 50.4375 45.09375 
Q 46.96875 40.921875 40.578125 39.3125 
z
" id="DejaVuSans-51"/>
      </defs>
      <g transform="translate(173.101885 266.598437)scale(0.1 -0.1)">
       <use xlink:href="#DejaVuSans-51"/>
       <use x="63.623047" xlink:href="#DejaVuSans-48"/>
       <use x="127.246094" xlink:href="#DejaVuSans-48"/>
      </g>
     </g>
    </g>
    <g id="xtick_5">
     <g id="line2d_5">
      <g>
       <use style="stroke:#000000;stroke-width:0.8;" x="221.627463" xlink:href="#m146758393a" y="252"/>
      </g>
     </g>
     <g id="text_5">
      <!-- 400 -->
      <defs>
       <path d="M 37.796875 64.3125 
L 12.890625 25.390625 
L 37.796875 25.390625 
z
M 35.203125 72.90625 
L 47.609375 72.90625 
L 47.609375 25.390625 
L 58.015625 25.390625 
L 58.015625 17.1875 
L 47.609375 17.1875 
L 47.609375 0 
L 37.796875 0 
L 37.796875 17.1875 
L 4.890625 17.1875 
L 4.890625 26.703125 
z
" id="DejaVuSans-52"/>
      </defs>
      <g transform="translate(212.083713 266.598437)scale(0.1 -0.1)">
       <use xlink:href="#DejaVuSans-52"/>
       <use x="63.623047" xlink:href="#DejaVuSans-48"/>
       <use x="127.246094" xlink:href="#DejaVuSans-48"/>
      </g>
     </g>
    </g>
    <g id="xtick_6">
     <g id="line2d_6">
      <g>
       <use style="stroke:#000000;stroke-width:0.8;" x="260.609291" xlink:href="#m146758393a" y="252"/>
      </g>
     </g>
     <g id="text_6">
      <!-- 500 -->
      <defs>
       <path d="M 10.796875 72.90625 
L 49.515625 72.90625 
L 49.515625 64.59375 
L 19.828125 64.59375 
L 19.828125 46.734375 
Q 21.96875 47.46875 24.109375 47.828125 
Q 26.265625 48.1875 28.421875 48.1875 
Q 40.625 48.1875 47.75 41.5 
Q 54.890625 34.8125 54.890625 23.390625 
Q 54.890625 11.625 47.5625 5.09375 
Q 40.234375 -1.421875 26.90625 -1.421875 
Q 22.3125 -1.421875 17.546875 -0.640625 
Q 12.796875 0.140625 7.71875 1.703125 
L 7.71875 11.625 
Q 12.109375 9.234375 16.796875 8.0625 
Q 21.484375 6.890625 26.703125 6.890625 
Q 35.15625 6.890625 40.078125 11.328125 
Q 45.015625 15.765625 45.015625 23.390625 
Q 45.015625 31 40.078125 35.4375 
Q 35.15625 39.890625 26.703125 39.890625 
Q 22.75 39.890625 18.8125 39.015625 
Q 14.890625 38.140625 10.796875 36.28125 
z
" id="DejaVuSans-53"/>
      </defs>
      <g transform="translate(251.065541 266.598437)scale(0.1 -0.1)">
       <use xlink:href="#DejaVuSans-53"/>
       <use x="63.623047" xlink:href="#DejaVuSans-48"/>
       <use x="127.246094" xlink:href="#DejaVuSans-48"/>
      </g>
     </g>
    </g>
    <g id="xtick_7">
     <g id="line2d_7">
      <g>
       <use style="stroke:#000000;stroke-width:0.8;" x="299.591119" xlink:href="#m146758393a" y="252"/>
      </g>
     </g>
     <g id="text_7">
      <!-- 600 -->
      <defs>
       <path d="M 33.015625 40.375 
Q 26.375 40.375 22.484375 35.828125 
Q 18.609375 31.296875 18.609375 23.390625 
Q 18.609375 15.53125 22.484375 10.953125 
Q 26.375 6.390625 33.015625 6.390625 
Q 39.65625 6.390625 43.53125 10.953125 
Q 47.40625 15.53125 47.40625 23.390625 
Q 47.40625 31.296875 43.53125 35.828125 
Q 39.65625 40.375 33.015625 40.375 
z
M 52.59375 71.296875 
L 52.59375 62.3125 
Q 48.875 64.0625 45.09375 64.984375 
Q 41.3125 65.921875 37.59375 65.921875 
Q 27.828125 65.921875 22.671875 59.328125 
Q 17.53125 52.734375 16.796875 39.40625 
Q 19.671875 43.65625 24.015625 45.921875 
Q 28.375 48.1875 33.59375 48.1875 
Q 44.578125 48.1875 50.953125 41.515625 
Q 57.328125 34.859375 57.328125 23.390625 
Q 57.328125 12.15625 50.6875 5.359375 
Q 44.046875 -1.421875 33.015625 -1.421875 
Q 20.359375 -1.421875 13.671875 8.265625 
Q 6.984375 17.96875 6.984375 36.375 
Q 6.984375 53.65625 15.1875 63.9375 
Q 23.390625 74.21875 37.203125 74.21875 
Q 40.921875 74.21875 44.703125 73.484375 
Q 48.484375 72.75 52.59375 71.296875 
z
" id="DejaVuSans-54"/>
      </defs>
      <g transform="translate(290.047369 266.598437)scale(0.1 -0.1)">
       <use xlink:href="#DejaVuSans-54"/>
       <use x="63.623047" xlink:href="#DejaVuSans-48"/>
       <use x="127.246094" xlink:href="#DejaVuSans-48"/>
      </g>
     </g>
    </g>
    <g id="xtick_8">
     <g id="line2d_8">
      <g>
       <use style="stroke:#000000;stroke-width:0.8;" x="338.572947" xlink:href="#m146758393a" y="252"/>
      </g>
     </g>
     <g id="text_8">
      <!-- 700 -->
      <defs>
       <path d="M 8.203125 72.90625 
L 55.078125 72.90625 
L 55.078125 68.703125 
L 28.609375 0 
L 18.3125 0 
L 43.21875 64.59375 
L 8.203125 64.59375 
z
" id="DejaVuSans-55"/>
      </defs>
      <g transform="translate(329.029197 266.598437)scale(0.1 -0.1)">
       <use xlink:href="#DejaVuSans-55"/>
       <use x="63.623047" xlink:href="#DejaVuSans-48"/>
       <use x="127.246094" xlink:href="#DejaVuSans-48"/>
      </g>
     </g>
    </g>
    <g id="xtick_9">
     <g id="line2d_9">
      <g>
       <use style="stroke:#000000;stroke-width:0.8;" x="377.554775" xlink:href="#m146758393a" y="252"/>
      </g>
     </g>
     <g id="text_9">
      <!-- 800 -->
      <defs>
       <path d="M 31.78125 34.625 
Q 24.75 34.625 20.71875 30.859375 
Q 16.703125 27.09375 16.703125 20.515625 
Q 16.703125 13.921875 20.71875 10.15625 
Q 24.75 6.390625 31.78125 6.390625 
Q 38.8125 6.390625 42.859375 10.171875 
Q 46.921875 13.96875 46.921875 20.515625 
Q 46.921875 27.09375 42.890625 30.859375 
Q 38.875 34.625 31.78125 34.625 
z
M 21.921875 38.8125 
Q 15.578125 40.375 12.03125 44.71875 
Q 8.5 49.078125 8.5 55.328125 
Q 8.5 64.0625 14.71875 69.140625 
Q 20.953125 74.21875 31.78125 74.21875 
Q 42.671875 74.21875 48.875 69.140625 
Q 55.078125 64.0625 55.078125 55.328125 
Q 55.078125 49.078125 51.53125 44.71875 
Q 48 40.375 41.703125 38.8125 
Q 48.828125 37.15625 52.796875 32.3125 
Q 56.78125 27.484375 56.78125 20.515625 
Q 56.78125 9.90625 50.3125 4.234375 
Q 43.84375 -1.421875 31.78125 -1.421875 
Q 19.734375 -1.421875 13.25 4.234375 
Q 6.78125 9.90625 6.78125 20.515625 
Q 6.78125 27.484375 10.78125 32.3125 
Q 14.796875 37.15625 21.921875 38.8125 
z
M 18.3125 54.390625 
Q 18.3125 48.734375 21.84375 45.5625 
Q 25.390625 42.390625 31.78125 42.390625 
Q 38.140625 42.390625 41.71875 45.5625 
Q 45.3125 48.734375 45.3125 54.390625 
Q 45.3125 60.0625 41.71875 63.234375 
Q 38.140625 66.40625 31.78125 66.40625 
Q 25.390625 66.40625 21.84375 63.234375 
Q 18.3125 60.0625 18.3125 54.390625 
z
" id="DejaVuSans-56"/>
      </defs>
      <g transform="translate(368.011025 266.598437)scale(0.1 -0.1)">
       <use xlink:href="#DejaVuSans-56"/>
       <use x="63.623047" xlink:href="#DejaVuSans-48"/>
       <use x="127.246094" xlink:href="#DejaVuSans-48"/>
      </g>
     </g>
    </g>
    <g id="text_10">
     <!-- Time in seconds -->
     <defs>
      <path d="M -0.296875 72.90625 
L 61.375 72.90625 
L 61.375 64.59375 
L 35.5 64.59375 
L 35.5 0 
L 25.59375 0 
L 25.59375 64.59375 
L -0.296875 64.59375 
z
" id="DejaVuSans-84"/>
      <path d="M 9.421875 54.6875 
L 18.40625 54.6875 
L 18.40625 0 
L 9.421875 0 
z
M 9.421875 75.984375 
L 18.40625 75.984375 
L 18.40625 64.59375 
L 9.421875 64.59375 
z
" id="DejaVuSans-105"/>
      <path d="M 52 44.1875 
Q 55.375 50.25 60.0625 53.125 
Q 64.75 56 71.09375 56 
Q 79.640625 56 84.28125 50.015625 
Q 88.921875 44.046875 88.921875 33.015625 
L 88.921875 0 
L 79.890625 0 
L 79.890625 32.71875 
Q 79.890625 40.578125 77.09375 44.375 
Q 74.3125 48.1875 68.609375 48.1875 
Q 61.625 48.1875 57.5625 43.546875 
Q 53.515625 38.921875 53.515625 30.90625 
L 53.515625 0 
L 44.484375 0 
L 44.484375 32.71875 
Q 44.484375 40.625 41.703125 44.40625 
Q 38.921875 48.1875 33.109375 48.1875 
Q 26.21875 48.1875 22.15625 43.53125 
Q 18.109375 38.875 18.109375 30.90625 
L 18.109375 0 
L 9.078125 0 
L 9.078125 54.6875 
L 18.109375 54.6875 
L 18.109375 46.1875 
Q 21.1875 51.21875 25.484375 53.609375 
Q 29.78125 56 35.6875 56 
Q 41.65625 56 45.828125 52.96875 
Q 50 49.953125 52 44.1875 
z
" id="DejaVuSans-109"/>
      <path d="M 56.203125 29.59375 
L 56.203125 25.203125 
L 14.890625 25.203125 
Q 15.484375 15.921875 20.484375 11.0625 
Q 25.484375 6.203125 34.421875 6.203125 
Q 39.59375 6.203125 44.453125 7.46875 
Q 49.3125 8.734375 54.109375 11.28125 
L 54.109375 2.78125 
Q 49.265625 0.734375 44.1875 -0.34375 
Q 39.109375 -1.421875 33.890625 -1.421875 
Q 20.796875 -1.421875 13.15625 6.1875 
Q 5.515625 13.8125 5.515625 26.8125 
Q 5.515625 40.234375 12.765625 48.109375 
Q 20.015625 56 32.328125 56 
Q 43.359375 56 49.78125 48.890625 
Q 56.203125 41.796875 56.203125 29.59375 
z
M 47.21875 32.234375 
Q 47.125 39.59375 43.09375 43.984375 
Q 39.0625 48.390625 32.421875 48.390625 
Q 24.90625 48.390625 20.390625 44.140625 
Q 15.875 39.890625 15.1875 32.171875 
z
" id="DejaVuSans-101"/>
      <path id="DejaVuSans-32"/>
      <path d="M 54.890625 33.015625 
L 54.890625 0 
L 45.90625 0 
L 45.90625 32.71875 
Q 45.90625 40.484375 42.875 44.328125 
Q 39.84375 48.1875 33.796875 48.1875 
Q 26.515625 48.1875 22.3125 43.546875 
Q 18.109375 38.921875 18.109375 30.90625 
L 18.109375 0 
L 9.078125 0 
L 9.078125 54.6875 
L 18.109375 54.6875 
L 18.109375 46.1875 
Q 21.34375 51.125 25.703125 53.5625 
Q 30.078125 56 35.796875 56 
Q 45.21875 56 50.046875 50.171875 
Q 54.890625 44.34375 54.890625 33.015625 
z
" id="DejaVuSans-110"/>
      <path d="M 44.28125 53.078125 
L 44.28125 44.578125 
Q 40.484375 46.53125 36.375 47.5 
Q 32.28125 48.484375 27.875 48.484375 
Q 21.1875 48.484375 17.84375 46.4375 
Q 14.5 44.390625 14.5 40.28125 
Q 14.5 37.15625 16.890625 35.375 
Q 19.28125 33.59375 26.515625 31.984375 
L 29.59375 31.296875 
Q 39.15625 29.25 43.1875 25.515625 
Q 47.21875 21.78125 47.21875 15.09375 
Q 47.21875 7.46875 41.1875 3.015625 
Q 35.15625 -1.421875 24.609375 -1.421875 
Q 20.21875 -1.421875 15.453125 -0.5625 
Q 10.6875 0.296875 5.421875 2 
L 5.421875 11.28125 
Q 10.40625 8.6875 15.234375 7.390625 
Q 20.0625 6.109375 24.8125 6.109375 
Q 31.15625 6.109375 34.5625 8.28125 
Q 37.984375 10.453125 37.984375 14.40625 
Q 37.984375 18.0625 35.515625 20.015625 
Q 33.0625 21.96875 24.703125 23.78125 
L 21.578125 24.515625 
Q 13.234375 26.265625 9.515625 29.90625 
Q 5.8125 33.546875 5.8125 39.890625 
Q 5.8125 47.609375 11.28125 51.796875 
Q 16.75 56 26.8125 56 
Q 31.78125 56 36.171875 55.265625 
Q 40.578125 54.546875 44.28125 53.078125 
z
" id="DejaVuSans-115"/>
      <path d="M 48.78125 52.59375 
L 48.78125 44.1875 
Q 44.96875 46.296875 41.140625 47.34375 
Q 37.3125 48.390625 33.40625 48.390625 
Q 24.65625 48.390625 19.8125 42.84375 
Q 14.984375 37.3125 14.984375 27.296875 
Q 14.984375 17.28125 19.8125 11.734375 
Q 24.65625 6.203125 33.40625 6.203125 
Q 37.3125 6.203125 41.140625 7.25 
Q 44.96875 8.296875 48.78125 10.40625 
L 48.78125 2.09375 
Q 45.015625 0.34375 40.984375 -0.53125 
Q 36.96875 -1.421875 32.421875 -1.421875 
Q 20.0625 -1.421875 12.78125 6.34375 
Q 5.515625 14.109375 5.515625 27.296875 
Q 5.515625 40.671875 12.859375 48.328125 
Q 20.21875 56 33.015625 56 
Q 37.15625 56 41.109375 55.140625 
Q 45.0625 54.296875 48.78125 52.59375 
z
" id="DejaVuSans-99"/>
      <path d="M 30.609375 48.390625 
Q 23.390625 48.390625 19.1875 42.75 
Q 14.984375 37.109375 14.984375 27.296875 
Q 14.984375 17.484375 19.15625 11.84375 
Q 23.34375 6.203125 30.609375 6.203125 
Q 37.796875 6.203125 41.984375 11.859375 
Q 46.1875 17.53125 46.1875 27.296875 
Q 46.1875 37.015625 41.984375 42.703125 
Q 37.796875 48.390625 30.609375 48.390625 
z
M 30.609375 56 
Q 42.328125 56 49.015625 48.375 
Q 55.71875 40.765625 55.71875 27.296875 
Q 55.71875 13.875 49.015625 6.21875 
Q 42.328125 -1.421875 30.609375 -1.421875 
Q 18.84375 -1.421875 12.171875 6.21875 
Q 5.515625 13.875 5.515625 27.296875 
Q 5.515625 40.765625 12.171875 48.375 
Q 18.84375 56 30.609375 56 
z
" id="DejaVuSans-111"/>
      <path d="M 45.40625 46.390625 
L 45.40625 75.984375 
L 54.390625 75.984375 
L 54.390625 0 
L 45.40625 0 
L 45.40625 8.203125 
Q 42.578125 3.328125 38.25 0.953125 
Q 33.9375 -1.421875 27.875 -1.421875 
Q 17.96875 -1.421875 11.734375 6.484375 
Q 5.515625 14.40625 5.515625 27.296875 
Q 5.515625 40.1875 11.734375 48.09375 
Q 17.96875 56 27.875 56 
Q 33.9375 56 38.25 53.625 
Q 42.578125 51.265625 45.40625 46.390625 
z
M 14.796875 27.296875 
Q 14.796875 17.390625 18.875 11.75 
Q 22.953125 6.109375 30.078125 6.109375 
Q 37.203125 6.109375 41.296875 11.75 
Q 45.40625 17.390625 45.40625 27.296875 
Q 45.40625 37.203125 41.296875 42.84375 
Q 37.203125 48.484375 30.078125 48.484375 
Q 22.953125 48.484375 18.875 42.84375 
Q 14.796875 37.203125 14.796875 27.296875 
z
" id="DejaVuSans-100"/>
     </defs>
     <g transform="translate(180.839063 280.276563)scale(0.1 -0.1)">
      <use xlink:href="#DejaVuSans-84"/>
      <use x="61.037109" xlink:href="#DejaVuSans-105"/>
      <use x="88.820312" xlink:href="#DejaVuSans-109"/>
      <use x="186.232422" xlink:href="#DejaVuSans-101"/>
      <use x="247.755859" xlink:href="#DejaVuSans-32"/>
      <use x="279.542969" xlink:href="#DejaVuSans-105"/>
      <use x="307.326172" xlink:href="#DejaVuSans-110"/>
      <use x="370.705078" xlink:href="#DejaVuSans-32"/>
      <use x="402.492188" xlink:href="#DejaVuSans-115"/>
      <use x="454.591797" xlink:href="#DejaVuSans-101"/>
      <use x="516.115234" xlink:href="#DejaVuSans-99"/>
      <use x="571.095703" xlink:href="#DejaVuSans-111"/>
      <use x="632.277344" xlink:href="#DejaVuSans-110"/>
      <use x="695.65625" xlink:href="#DejaVuSans-100"/>
      <use x="759.132812" xlink:href="#DejaVuSans-115"/>
     </g>
    </g>
   </g>
   <g id="matplotlib.axis_2">
    <g id="ytick_1">
     <g id="line2d_10">
      <defs>
       <path d="M 0 0 
L -3.5 0 
" id="md9c1dfb95e" style="stroke:#000000;stroke-width:0.8;"/>
      </defs>
      <g>
       <use style="stroke:#000000;stroke-width:0.8;" x="54" xlink:href="#md9c1dfb95e" y="242.116364"/>
      </g>
     </g>
     <g id="text_11">
      <!-- 0 -->
      <g transform="translate(40.6375 245.915582)scale(0.1 -0.1)">
       <use xlink:href="#DejaVuSans-48"/>
      </g>
     </g>
    </g>
    <g id="ytick_2">
     <g id="line2d_11">
      <g>
       <use style="stroke:#000000;stroke-width:0.8;" x="54" xlink:href="#md9c1dfb95e" y="205.510303"/>
      </g>
     </g>
     <g id="text_12">
      <!-- 20 -->
      <g transform="translate(34.275 209.309522)scale(0.1 -0.1)">
       <use xlink:href="#DejaVuSans-50"/>
       <use x="63.623047" xlink:href="#DejaVuSans-48"/>
      </g>
     </g>
    </g>
    <g id="ytick_3">
     <g id="line2d_12">
      <g>
       <use style="stroke:#000000;stroke-width:0.8;" x="54" xlink:href="#md9c1dfb95e" y="168.904242"/>
      </g>
     </g>
     <g id="text_13">
      <!-- 40 -->
      <g transform="translate(34.275 172.703461)scale(0.1 -0.1)">
       <use xlink:href="#DejaVuSans-52"/>
       <use x="63.623047" xlink:href="#DejaVuSans-48"/>
      </g>
     </g>
    </g>
    <g id="ytick_4">
     <g id="line2d_13">
      <g>
       <use style="stroke:#000000;stroke-width:0.8;" x="54" xlink:href="#md9c1dfb95e" y="132.298182"/>
      </g>
     </g>
     <g id="text_14">
      <!-- 60 -->
      <g transform="translate(34.275 136.097401)scale(0.1 -0.1)">
       <use xlink:href="#DejaVuSans-54"/>
       <use x="63.623047" xlink:href="#DejaVuSans-48"/>
      </g>
     </g>
    </g>
    <g id="ytick_5">
     <g id="line2d_14">
      <g>
       <use style="stroke:#000000;stroke-width:0.8;" x="54" xlink:href="#md9c1dfb95e" y="95.692121"/>
      </g>
     </g>
     <g id="text_15">
      <!-- 80 -->
      <g transform="translate(34.275 99.49134)scale(0.1 -0.1)">
       <use xlink:href="#DejaVuSans-56"/>
       <use x="63.623047" xlink:href="#DejaVuSans-48"/>
      </g>
     </g>
    </g>
    <g id="ytick_6">
     <g id="line2d_15">
      <g>
       <use style="stroke:#000000;stroke-width:0.8;" x="54" xlink:href="#md9c1dfb95e" y="59.086061"/>
      </g>
     </g>
     <g id="text_16">
      <!-- 100 -->
      <g transform="translate(27.9125 62.885279)scale(0.1 -0.1)">
       <use xlink:href="#DejaVuSans-49"/>
       <use x="63.623047" xlink:href="#DejaVuSans-48"/>
       <use x="127.246094" xlink:href="#DejaVuSans-48"/>
      </g>
     </g>
    </g>
    <g id="text_17">
     <!-- Cumulative Successful Throws -->
     <defs>
      <path d="M 64.40625 67.28125 
L 64.40625 56.890625 
Q 59.421875 61.53125 53.78125 63.8125 
Q 48.140625 66.109375 41.796875 66.109375 
Q 29.296875 66.109375 22.65625 58.46875 
Q 16.015625 50.828125 16.015625 36.375 
Q 16.015625 21.96875 22.65625 14.328125 
Q 29.296875 6.6875 41.796875 6.6875 
Q 48.140625 6.6875 53.78125 8.984375 
Q 59.421875 11.28125 64.40625 15.921875 
L 64.40625 5.609375 
Q 59.234375 2.09375 53.4375 0.328125 
Q 47.65625 -1.421875 41.21875 -1.421875 
Q 24.65625 -1.421875 15.125 8.703125 
Q 5.609375 18.84375 5.609375 36.375 
Q 5.609375 53.953125 15.125 64.078125 
Q 24.65625 74.21875 41.21875 74.21875 
Q 47.75 74.21875 53.53125 72.484375 
Q 59.328125 70.75 64.40625 67.28125 
z
" id="DejaVuSans-67"/>
      <path d="M 8.5 21.578125 
L 8.5 54.6875 
L 17.484375 54.6875 
L 17.484375 21.921875 
Q 17.484375 14.15625 20.5 10.265625 
Q 23.53125 6.390625 29.59375 6.390625 
Q 36.859375 6.390625 41.078125 11.03125 
Q 45.3125 15.671875 45.3125 23.6875 
L 45.3125 54.6875 
L 54.296875 54.6875 
L 54.296875 0 
L 45.3125 0 
L 45.3125 8.40625 
Q 42.046875 3.421875 37.71875 1 
Q 33.40625 -1.421875 27.6875 -1.421875 
Q 18.265625 -1.421875 13.375 4.4375 
Q 8.5 10.296875 8.5 21.578125 
z
M 31.109375 56 
z
" id="DejaVuSans-117"/>
      <path d="M 9.421875 75.984375 
L 18.40625 75.984375 
L 18.40625 0 
L 9.421875 0 
z
" id="DejaVuSans-108"/>
      <path d="M 34.28125 27.484375 
Q 23.390625 27.484375 19.1875 25 
Q 14.984375 22.515625 14.984375 16.5 
Q 14.984375 11.71875 18.140625 8.90625 
Q 21.296875 6.109375 26.703125 6.109375 
Q 34.1875 6.109375 38.703125 11.40625 
Q 43.21875 16.703125 43.21875 25.484375 
L 43.21875 27.484375 
z
M 52.203125 31.203125 
L 52.203125 0 
L 43.21875 0 
L 43.21875 8.296875 
Q 40.140625 3.328125 35.546875 0.953125 
Q 30.953125 -1.421875 24.3125 -1.421875 
Q 15.921875 -1.421875 10.953125 3.296875 
Q 6 8.015625 6 15.921875 
Q 6 25.140625 12.171875 29.828125 
Q 18.359375 34.515625 30.609375 34.515625 
L 43.21875 34.515625 
L 43.21875 35.40625 
Q 43.21875 41.609375 39.140625 45 
Q 35.0625 48.390625 27.6875 48.390625 
Q 23 48.390625 18.546875 47.265625 
Q 14.109375 46.140625 10.015625 43.890625 
L 10.015625 52.203125 
Q 14.9375 54.109375 19.578125 55.046875 
Q 24.21875 56 28.609375 56 
Q 40.484375 56 46.34375 49.84375 
Q 52.203125 43.703125 52.203125 31.203125 
z
" id="DejaVuSans-97"/>
      <path d="M 18.3125 70.21875 
L 18.3125 54.6875 
L 36.8125 54.6875 
L 36.8125 47.703125 
L 18.3125 47.703125 
L 18.3125 18.015625 
Q 18.3125 11.328125 20.140625 9.421875 
Q 21.96875 7.515625 27.59375 7.515625 
L 36.8125 7.515625 
L 36.8125 0 
L 27.59375 0 
Q 17.1875 0 13.234375 3.875 
Q 9.28125 7.765625 9.28125 18.015625 
L 9.28125 47.703125 
L 2.6875 47.703125 
L 2.6875 54.6875 
L 9.28125 54.6875 
L 9.28125 70.21875 
z
" id="DejaVuSans-116"/>
      <path d="M 2.984375 54.6875 
L 12.5 54.6875 
L 29.59375 8.796875 
L 46.6875 54.6875 
L 56.203125 54.6875 
L 35.6875 0 
L 23.484375 0 
z
" id="DejaVuSans-118"/>
      <path d="M 53.515625 70.515625 
L 53.515625 60.890625 
Q 47.90625 63.578125 42.921875 64.890625 
Q 37.9375 66.21875 33.296875 66.21875 
Q 25.25 66.21875 20.875 63.09375 
Q 16.5 59.96875 16.5 54.203125 
Q 16.5 49.359375 19.40625 46.890625 
Q 22.3125 44.4375 30.421875 42.921875 
L 36.375 41.703125 
Q 47.40625 39.59375 52.65625 34.296875 
Q 57.90625 29 57.90625 20.125 
Q 57.90625 9.515625 50.796875 4.046875 
Q 43.703125 -1.421875 29.984375 -1.421875 
Q 24.8125 -1.421875 18.96875 -0.25 
Q 13.140625 0.921875 6.890625 3.21875 
L 6.890625 13.375 
Q 12.890625 10.015625 18.65625 8.296875 
Q 24.421875 6.59375 29.984375 6.59375 
Q 38.421875 6.59375 43.015625 9.90625 
Q 47.609375 13.234375 47.609375 19.390625 
Q 47.609375 24.75 44.3125 27.78125 
Q 41.015625 30.8125 33.5 32.328125 
L 27.484375 33.5 
Q 16.453125 35.6875 11.515625 40.375 
Q 6.59375 45.0625 6.59375 53.421875 
Q 6.59375 63.09375 13.40625 68.65625 
Q 20.21875 74.21875 32.171875 74.21875 
Q 37.3125 74.21875 42.625 73.28125 
Q 47.953125 72.359375 53.515625 70.515625 
z
" id="DejaVuSans-83"/>
      <path d="M 37.109375 75.984375 
L 37.109375 68.5 
L 28.515625 68.5 
Q 23.6875 68.5 21.796875 66.546875 
Q 19.921875 64.59375 19.921875 59.515625 
L 19.921875 54.6875 
L 34.71875 54.6875 
L 34.71875 47.703125 
L 19.921875 47.703125 
L 19.921875 0 
L 10.890625 0 
L 10.890625 47.703125 
L 2.296875 47.703125 
L 2.296875 54.6875 
L 10.890625 54.6875 
L 10.890625 58.5 
Q 10.890625 67.625 15.140625 71.796875 
Q 19.390625 75.984375 28.609375 75.984375 
z
" id="DejaVuSans-102"/>
      <path d="M 54.890625 33.015625 
L 54.890625 0 
L 45.90625 0 
L 45.90625 32.71875 
Q 45.90625 40.484375 42.875 44.328125 
Q 39.84375 48.1875 33.796875 48.1875 
Q 26.515625 48.1875 22.3125 43.546875 
Q 18.109375 38.921875 18.109375 30.90625 
L 18.109375 0 
L 9.078125 0 
L 9.078125 75.984375 
L 18.109375 75.984375 
L 18.109375 46.1875 
Q 21.34375 51.125 25.703125 53.5625 
Q 30.078125 56 35.796875 56 
Q 45.21875 56 50.046875 50.171875 
Q 54.890625 44.34375 54.890625 33.015625 
z
" id="DejaVuSans-104"/>
      <path d="M 41.109375 46.296875 
Q 39.59375 47.171875 37.8125 47.578125 
Q 36.03125 48 33.890625 48 
Q 26.265625 48 22.1875 43.046875 
Q 18.109375 38.09375 18.109375 28.8125 
L 18.109375 0 
L 9.078125 0 
L 9.078125 54.6875 
L 18.109375 54.6875 
L 18.109375 46.1875 
Q 20.953125 51.171875 25.484375 53.578125 
Q 30.03125 56 36.53125 56 
Q 37.453125 56 38.578125 55.875 
Q 39.703125 55.765625 41.0625 55.515625 
z
" id="DejaVuSans-114"/>
      <path d="M 4.203125 54.6875 
L 13.1875 54.6875 
L 24.421875 12.015625 
L 35.59375 54.6875 
L 46.1875 54.6875 
L 57.421875 12.015625 
L 68.609375 54.6875 
L 77.59375 54.6875 
L 63.28125 0 
L 52.6875 0 
L 40.921875 44.828125 
L 29.109375 0 
L 18.5 0 
z
" id="DejaVuSans-119"/>
     </defs>
     <g transform="translate(21.832812 219.470625)rotate(-90)scale(0.1 -0.1)">
      <use xlink:href="#DejaVuSans-67"/>
      <use x="69.824219" xlink:href="#DejaVuSans-117"/>
      <use x="133.203125" xlink:href="#DejaVuSans-109"/>
      <use x="230.615234" xlink:href="#DejaVuSans-117"/>
      <use x="293.994141" xlink:href="#DejaVuSans-108"/>
      <use x="321.777344" xlink:href="#DejaVuSans-97"/>
      <use x="383.056641" xlink:href="#DejaVuSans-116"/>
      <use x="422.265625" xlink:href="#DejaVuSans-105"/>
      <use x="450.048828" xlink:href="#DejaVuSans-118"/>
      <use x="509.228516" xlink:href="#DejaVuSans-101"/>
      <use x="570.751953" xlink:href="#DejaVuSans-32"/>
      <use x="602.539062" xlink:href="#DejaVuSans-83"/>
      <use x="666.015625" xlink:href="#DejaVuSans-117"/>
      <use x="729.394531" xlink:href="#DejaVuSans-99"/>
      <use x="784.375" xlink:href="#DejaVuSans-99"/>
      <use x="839.355469" xlink:href="#DejaVuSans-101"/>
      <use x="900.878906" xlink:href="#DejaVuSans-115"/>
      <use x="952.978516" xlink:href="#DejaVuSans-115"/>
      <use x="1005.078125" xlink:href="#DejaVuSans-102"/>
      <use x="1040.283203" xlink:href="#DejaVuSans-117"/>
      <use x="1103.662109" xlink:href="#DejaVuSans-108"/>
      <use x="1131.445312" xlink:href="#DejaVuSans-32"/>
      <use x="1163.232422" xlink:href="#DejaVuSans-84"/>
      <use x="1224.316406" xlink:href="#DejaVuSans-104"/>
      <use x="1287.695312" xlink:href="#DejaVuSans-114"/>
      <use x="1328.777344" xlink:href="#DejaVuSans-111"/>
      <use x="1389.958984" xlink:href="#DejaVuSans-119"/>
      <use x="1471.746094" xlink:href="#DejaVuSans-115"/>
     </g>
    </g>
   </g>
   <g id="line2d_16">
    <path clip-path="url(#pe59094609f)" d="M 76.897788 242.116364 
L 77.135142 242.116364 
L 77.558752 240.286061 
L 77.56575 238.455758 
L 81.045223 238.455758 
L 81.236892 236.625455 
L 87.422371 236.625455 
L 87.528119 234.795152 
L 89.698407 234.795152 
L 89.910484 232.964848 
L 91.542275 232.964848 
L 91.733953 231.134545 
L 97.017278 231.134545 
L 97.15602 229.304242 
L 101.436213 229.304242 
L 101.67493 227.473939 
L 109.067832 227.473939 
L 109.133925 225.643636 
L 112.806676 225.643636 
L 112.912815 223.813333 
L 115.897478 223.813333 
L 116.049878 221.98303 
L 117.088582 221.98303 
L 117.221195 220.152727 
L 118.04284 220.152727 
L 118.181867 218.322424 
L 119.53275 218.322424 
L 119.545489 216.492121 
L 120.531889 216.492121 
L 120.689645 214.661818 
L 121.724501 214.661818 
L 121.791421 212.831515 
L 127.30386 212.831515 
L 127.416032 211.001212 
L 137.10039 211.001212 
L 137.199189 209.170909 
L 138.146235 209.170909 
L 138.411346 207.340606 
L 141.797049 207.340606 
L 141.983095 205.510303 
L 161.130198 205.510303 
L 161.190443 203.68 
L 162.325573 203.68 
L 162.444922 201.849697 
L 163.583249 201.849697 
L 163.596455 198.189091 
L 165.126578 198.189091 
L 165.470281 196.358788 
L 166.264771 196.358788 
L 166.40338 194.528485 
L 170.061378 194.528485 
L 170.412312 192.698182 
L 172.812022 192.698182 
L 172.87209 190.867879 
L 175.348981 190.867879 
L 175.495159 189.037576 
L 176.547843 189.037576 
L 176.779682 187.207273 
L 177.686867 187.207273 
L 177.959451 185.37697 
L 178.953547 185.37697 
L 179.072513 183.546667 
L 181.85618 183.546667 
L 181.970092 181.716364 
L 182.802113 181.716364 
L 183.100537 179.886061 
L 185.290391 179.886061 
L 185.331218 178.055758 
L 186.622631 178.055758 
L 186.742765 176.225455 
L 191.585631 176.225455 
L 191.599251 174.395152 
L 199.888455 174.395152 
L 200.046918 172.564848 
L 201.171755 172.564848 
L 201.379749 170.734545 
L 202.114115 170.734545 
L 202.424792 168.904242 
L 206.854223 168.904242 
L 206.940143 167.073939 
L 211.432984 167.073939 
L 211.664307 165.243636 
L 214.017477 165.243636 
L 214.063708 163.413333 
L 217.416953 163.413333 
L 217.423562 161.58303 
L 221.95377 161.58303 
L 222.073126 159.752727 
L 230.067491 159.752727 
L 230.320584 157.922424 
L 231.1523 157.922424 
L 231.237856 156.092121 
L 236.998254 156.092121 
L 237.366023 154.261818 
L 237.418505 152.431515 
L 238.186989 152.431515 
L 238.312534 150.601212 
L 239.354571 150.601212 
L 239.473561 146.940606 
L 241.208806 146.940606 
L 241.527738 145.110303 
L 242.639045 145.110303 
L 242.679868 143.28 
L 243.969496 143.28 
L 244.015751 141.449697 
L 246.918804 141.449697 
L 247.209845 139.619394 
L 248.489907 139.619394 
L 248.582061 137.789091 
L 252.150083 137.789091 
L 252.242612 135.958788 
L 259.61735 135.958788 
L 259.908356 134.128485 
L 276.223128 134.128485 
L 276.540749 132.298182 
L 279.719886 132.298182 
L 279.924576 130.467879 
L 289.142576 130.467879 
L 289.254945 128.637576 
L 290.341238 128.637576 
L 290.571885 126.807273 
L 293.004933 126.807273 
L 293.194268 124.97697 
L 296.647332 124.97697 
L 296.719656 123.146667 
L 308.651361 123.146667 
L 309.134268 121.316364 
L 321.073838 121.316364 
L 321.709179 119.486061 
L 323.008452 119.486061 
L 323.046163 115.825455 
L 324.376594 115.825455 
L 324.429287 113.995152 
L 329.852435 113.995152 
L 329.905697 112.164848 
L 336.00363 112.164848 
L 336.202648 110.334545 
L 338.474989 110.334545 
L 338.494766 108.504242 
L 339.707393 108.504242 
L 339.766487 106.673939 
L 343.313512 106.673939 
L 343.456973 104.843636 
L 344.616825 104.843636 
L 344.616825 104.843636 
" style="fill:none;stroke:#1f77b4;stroke-linecap:square;stroke-width:1.5;"/>
   </g>
   <g id="line2d_17">
    <path clip-path="url(#pe59094609f)" d="M 69.218182 242.116364 
L 72.882967 242.116364 
L 73.484257 240.286061 
L 77.555495 240.286061 
L 78.164055 238.455758 
L 88.600371 238.455758 
L 89.215469 236.625455 
L 108.120267 236.625455 
L 108.728597 234.795152 
L 117.897499 234.795152 
L 118.505976 232.964848 
L 153.359117 232.964848 
L 153.947702 231.134545 
L 155.379528 231.134545 
L 156.093553 229.304242 
L 191.861287 229.304242 
L 192.476373 227.473939 
L 201.131989 227.473939 
L 201.796309 225.643636 
L 207.034922 225.643636 
L 207.650308 223.813333 
L 208.288511 223.813333 
L 208.923667 221.98303 
L 249.057913 221.98303 
L 249.693458 220.152727 
L 261.190808 220.152727 
L 261.858579 218.322424 
L 265.695608 218.322424 
L 266.30375 216.492121 
L 269.169854 216.492121 
L 269.758962 214.661818 
L 270.989171 214.661818 
L 271.598003 212.831515 
L 294.400741 212.831515 
L 295.016033 211.001212 
L 308.36059 211.001212 
L 308.988765 209.170909 
L 315.107137 209.170909 
L 315.768252 207.340606 
L 322.993609 207.340606 
L 323.641619 205.510303 
L 329.482326 205.510303 
L 330.090905 203.68 
L 357.060874 203.68 
L 357.676679 201.849697 
L 361.19089 201.849697 
L 361.799802 200.019394 
L 368.201477 200.019394 
L 368.877081 198.189091 
L 371.38601 198.189091 
L 372.027198 196.358788 
L 372.941763 196.358788 
L 373.581818 194.528485 
L 373.581818 194.528485 
" style="fill:none;stroke:#ff7f0e;stroke-linecap:square;stroke-width:1.5;"/>
   </g>
   <g id="line2d_18">
    <path clip-path="url(#pe59094609f)" d="M 71.400215 240.286061 
L 81.077372 240.286061 
L 81.110028 238.455758 
L 83.442161 238.455758 
L 83.475057 236.625455 
L 87.251741 236.625455 
L 87.264959 234.795152 
L 90.996076 234.795152 
L 91.068001 231.134545 
L 94.500253 231.134545 
L 94.757852 229.304242 
L 95.764963 229.304242 
L 95.917769 227.473939 
L 98.30046 227.473939 
L 98.531798 225.643636 
L 99.889757 225.643636 
L 99.942645 223.813333 
L 100.791349 223.813333 
L 100.98303 221.98303 
L 102.103348 221.98303 
L 102.196266 220.152727 
L 102.447805 218.322424 
L 105.866261 218.322424 
L 105.965777 216.492121 
L 107.104373 216.492121 
L 107.110984 214.661818 
L 109.395942 214.661818 
L 109.502078 212.831515 
L 114.671063 212.831515 
L 114.844847 211.001212 
L 123.589491 211.001212 
L 123.622359 209.170909 
L 124.57596 209.170909 
L 124.848652 207.340606 
L 125.797126 207.340606 
L 125.883731 205.510303 
L 127.267322 205.510303 
L 127.313961 203.68 
L 129.709355 203.68 
L 129.836109 201.849697 
L 132.158726 201.849697 
L 132.344762 198.189091 
L 133.063008 198.189091 
L 133.334225 196.358788 
L 134.484262 196.358788 
L 134.663688 192.698182 
L 137.96093 192.698182 
L 138.013803 190.867879 
L 138.889484 190.867879 
L 138.916715 189.037576 
L 152.938258 189.037576 
L 152.964318 187.207273 
L 159.130501 187.207273 
L 159.203577 183.546667 
L 167.254853 183.546667 
L 167.340773 179.886061 
L 168.546401 179.886061 
L 168.824663 178.055758 
L 173.314774 178.055758 
L 173.427135 176.225455 
L 177.600729 176.225455 
L 177.642731 174.395152 
L 183.788041 174.395152 
L 183.834291 172.564848 
L 190.217726 172.564848 
L 190.311049 168.904242 
L 191.72993 168.904242 
L 191.85552 167.073939 
L 195.614755 167.073939 
L 195.721275 165.243636 
L 198.310884 165.243636 
L 198.364148 163.413333 
L 199.185498 163.413333 
L 199.231764 161.58303 
L 200.435924 161.58303 
L 200.549069 159.752727 
L 202.888565 159.752727 
L 202.989087 157.922424 
L 204.167514 157.922424 
L 204.26432 156.092121 
L 206.746374 156.092121 
L 206.870783 154.261818 
L 208.068134 154.261818 
L 208.155221 152.431515 
L 209.498523 152.431515 
L 209.861632 150.601212 
L 214.07139 150.601212 
L 214.098203 148.770909 
L 219.103442 148.770909 
L 219.354666 146.940606 
L 224.118262 146.940606 
L 224.170761 145.110303 
L 229.06897 145.110303 
L 229.101851 143.28 
L 230.231373 143.28 
L 230.383833 141.449697 
L 239.4396 141.449697 
L 239.453017 139.619394 
L 262.787816 139.619394 
L 262.886177 137.789091 
L 264.197845 137.789091 
L 264.257316 135.958788 
L 266.612866 135.958788 
L 266.844768 134.128485 
L 268.890409 134.128485 
L 268.98377 132.298182 
L 270.102997 132.298182 
L 270.222186 130.467879 
L 273.904002 130.467879 
L 273.996496 128.637576 
L 275.102699 128.637576 
L 275.188605 126.807273 
L 277.114019 126.807273 
L 277.41827 124.97697 
L 280.862637 124.97697 
L 281.089495 123.146667 
L 282.097243 123.146667 
L 282.348825 121.316364 
L 287.515824 121.316364 
L 287.562477 119.486061 
L 287.880097 119.486061 
L 287.880097 119.486061 
" style="fill:none;stroke:#2ca02c;stroke-linecap:square;stroke-width:1.5;"/>
   </g>
   <g id="line2d_19">
    <path clip-path="url(#pe59094609f)" d="M 76.112968 242.116364 
L 83.737148 242.116364 
L 86.253656 240.286061 
L 86.310535 238.455758 
L 89.147494 238.455758 
L 89.188304 236.625455 
L 90.530757 236.625455 
L 90.65789 234.795152 
L 94.459604 234.795152 
L 94.520623 232.964848 
L 98.365033 232.964848 
L 98.464572 231.134545 
L 101.145976 231.134545 
L 101.22218 227.473939 
L 103.902105 227.473939 
L 103.982151 225.643636 
L 106.476195 225.643636 
L 106.556832 223.813333 
L 107.745691 223.813333 
L 108.043386 220.152727 
L 109.071546 220.152727 
L 109.328274 218.322424 
L 111.694801 218.322424 
L 111.791732 216.492121 
L 113.065597 216.492121 
L 113.125857 214.661818 
L 118.402813 214.661818 
L 118.531499 212.831515 
L 120.998199 212.831515 
L 121.111339 211.001212 
L 122.457716 211.001212 
L 122.549655 209.170909 
L 123.853078 209.170909 
L 123.99304 207.340606 
L 127.513953 207.340606 
L 127.621065 205.510303 
L 130.044077 205.510303 
L 130.185434 203.68 
L 133.910865 203.68 
L 134.031387 201.849697 
L 135.101844 201.849697 
L 135.241026 200.019394 
L 136.348186 200.019394 
L 136.506937 198.189091 
L 137.766597 198.189091 
L 137.886338 196.358788 
L 140.02828 196.358788 
L 140.087374 194.528485 
L 141.39381 194.528485 
L 141.498208 192.698182 
L 145.666066 192.698182 
L 145.711941 190.867879 
L 149.684985 190.867879 
L 149.870432 189.037576 
L 153.738511 189.037576 
L 153.984185 185.37697 
L 154.269887 185.37697 
L 154.448789 183.546667 
L 155.042534 183.546667 
L 155.114848 181.716364 
L 157.57121 181.716364 
L 157.658302 179.886061 
L 159.082344 179.886061 
L 159.194475 178.055758 
L 163.260491 178.055758 
L 163.339803 176.225455 
L 165.756485 176.225455 
L 165.856411 174.395152 
L 166.839279 174.395152 
L 167.024185 172.564848 
L 169.41065 172.564848 
L 169.649746 170.734545 
L 170.48099 170.734545 
L 170.654019 168.904242 
L 171.811311 168.904242 
L 172.011143 167.073939 
L 173.187733 167.073939 
L 173.303533 165.243636 
L 174.570267 165.243636 
L 174.636761 163.413333 
L 179.58736 163.413333 
L 179.653262 161.58303 
L 179.759401 159.752727 
L 182.288291 159.752727 
L 182.394628 157.922424 
L 184.869065 157.922424 
L 184.955145 156.092121 
L 186.269813 156.092121 
L 186.336294 154.261818 
L 187.60389 154.261818 
L 187.689823 152.431515 
L 193.000685 152.431515 
L 193.166388 150.601212 
L 194.524631 150.601212 
L 194.530839 148.770909 
L 195.754398 148.770909 
L 195.822044 146.940606 
L 198.393137 146.940606 
L 198.519486 145.110303 
L 200.914384 145.110303 
L 201.056904 143.28 
L 202.341468 143.28 
L 202.480653 141.449697 
L 203.582808 141.449697 
L 203.767288 139.619394 
L 204.760623 139.619394 
L 204.85261 137.789091 
L 210.165468 137.789091 
L 210.179477 135.958788 
L 212.712219 135.958788 
L 212.793085 134.128485 
L 214.17889 134.128485 
L 214.244593 132.298182 
L 215.53552 132.298182 
L 215.689339 130.467879 
L 216.922389 130.467879 
L 217.008309 128.637576 
L 218.135264 128.637576 
L 218.227417 126.807273 
L 220.952669 126.807273 
L 220.952669 124.97697 
L 221.04481 124.97697 
L 222.292175 124.97697 
L 222.432122 123.146667 
L 223.583893 123.146667 
L 223.778693 119.486061 
L 227.794394 119.486061 
L 227.834452 117.655758 
L 230.570485 117.655758 
L 230.675443 115.825455 
L 235.950173 115.825455 
L 236.131262 113.995152 
L 237.319967 113.995152 
L 237.482376 112.164848 
L 238.790336 112.164848 
L 238.84282 110.334545 
L 241.40271 110.334545 
L 241.605395 108.504242 
L 244.205988 108.504242 
L 244.332183 104.843636 
L 247.084523 104.843636 
L 247.190271 103.013333 
L 248.588383 103.013333 
L 248.588772 101.18303 
L 249.978083 101.18303 
L 250.050799 97.522424 
L 251.292016 97.522424 
L 251.37134 95.692121 
L 253.850895 95.692121 
L 254.032843 92.031515 
L 257.646349 92.031515 
L 257.79214 90.201212 
L 259.076548 90.201212 
L 259.109593 88.370909 
L 261.861256 88.370909 
L 261.954564 86.540606 
L 263.008357 86.540606 
L 263.114118 82.88 
L 264.407395 82.88 
L 264.503424 79.219394 
L 267.345048 79.219394 
L 267.412705 77.389091 
L 269.788538 77.389091 
L 269.875605 73.728485 
L 272.550674 73.728485 
L 272.558061 71.898182 
L 273.846584 71.898182 
L 273.926672 70.067879 
L 274.879963 70.067879 
L 275.08174 66.407273 
L 277.669315 66.407273 
L 277.854871 64.57697 
L 283.013432 64.57697 
L 283.15327 60.916364 
L 285.717817 60.916364 
L 285.823176 59.086061 
L 286.937949 59.086061 
L 287.188711 57.255758 
L 291.647022 57.255758 
L 291.647399 55.425455 
L 292.894839 55.425455 
L 292.99126 53.595152 
L 295.741301 53.595152 
L 295.833831 51.764848 
L 297.077701 51.764848 
L 297.171009 49.934545 
L 298.167544 49.934545 
L 298.316836 48.104242 
L 299.64006 48.104242 
L 299.739976 46.273939 
L 302.021962 46.273939 
L 302.083313 44.443636 
L 303.256101 44.443636 
L 303.256101 44.443636 
" style="fill:none;stroke:#d62728;stroke-linecap:square;stroke-width:1.5;"/>
   </g>
   <g id="patch_3">
    <path d="M 54 252 
L 54 34.56 
" style="fill:none;stroke:#000000;stroke-linecap:square;stroke-linejoin:miter;stroke-width:0.8;"/>
   </g>
   <g id="patch_4">
    <path d="M 388.8 252 
L 388.8 34.56 
" style="fill:none;stroke:#000000;stroke-linecap:square;stroke-linejoin:miter;stroke-width:0.8;"/>
   </g>
   <g id="patch_5">
    <path d="M 54 252 
L 388.8 252 
" style="fill:none;stroke:#000000;stroke-linecap:square;stroke-linejoin:miter;stroke-width:0.8;"/>
   </g>
   <g id="patch_6">
    <path d="M 54 34.56 
L 388.8 34.56 
" style="fill:none;stroke:#000000;stroke-linecap:square;stroke-linejoin:miter;stroke-width:0.8;"/>
   </g>
   <g id="text_18">
    <!-- Successful Throws Over Time -->
    <defs>
     <path d="M 39.40625 66.21875 
Q 28.65625 66.21875 22.328125 58.203125 
Q 16.015625 50.203125 16.015625 36.375 
Q 16.015625 22.609375 22.328125 14.59375 
Q 28.65625 6.59375 39.40625 6.59375 
Q 50.140625 6.59375 56.421875 14.59375 
Q 62.703125 22.609375 62.703125 36.375 
Q 62.703125 50.203125 56.421875 58.203125 
Q 50.140625 66.21875 39.40625 66.21875 
z
M 39.40625 74.21875 
Q 54.734375 74.21875 63.90625 63.9375 
Q 73.09375 53.65625 73.09375 36.375 
Q 73.09375 19.140625 63.90625 8.859375 
Q 54.734375 -1.421875 39.40625 -1.421875 
Q 24.03125 -1.421875 14.8125 8.828125 
Q 5.609375 19.09375 5.609375 36.375 
Q 5.609375 53.65625 14.8125 63.9375 
Q 24.03125 74.21875 39.40625 74.21875 
z
" id="DejaVuSans-79"/>
    </defs>
    <g transform="translate(133.011563 28.56)scale(0.12 -0.12)">
     <use xlink:href="#DejaVuSans-83"/>
     <use x="63.476562" xlink:href="#DejaVuSans-117"/>
     <use x="126.855469" xlink:href="#DejaVuSans-99"/>
     <use x="181.835938" xlink:href="#DejaVuSans-99"/>
     <use x="236.816406" xlink:href="#DejaVuSans-101"/>
     <use x="298.339844" xlink:href="#DejaVuSans-115"/>
     <use x="350.439453" xlink:href="#DejaVuSans-115"/>
     <use x="402.539062" xlink:href="#DejaVuSans-102"/>
     <use x="437.744141" xlink:href="#DejaVuSans-117"/>
     <use x="501.123047" xlink:href="#DejaVuSans-108"/>
     <use x="528.90625" xlink:href="#DejaVuSans-32"/>
     <use x="560.693359" xlink:href="#DejaVuSans-84"/>
     <use x="621.777344" xlink:href="#DejaVuSans-104"/>
     <use x="685.15625" xlink:href="#DejaVuSans-114"/>
     <use x="726.238281" xlink:href="#DejaVuSans-111"/>
     <use x="787.419922" xlink:href="#DejaVuSans-119"/>
     <use x="869.207031" xlink:href="#DejaVuSans-115"/>
     <use x="921.306641" xlink:href="#DejaVuSans-32"/>
     <use x="953.09375" xlink:href="#DejaVuSans-79"/>
     <use x="1031.804688" xlink:href="#DejaVuSans-118"/>
     <use x="1090.984375" xlink:href="#DejaVuSans-101"/>
     <use x="1152.507812" xlink:href="#DejaVuSans-114"/>
     <use x="1193.621094" xlink:href="#DejaVuSans-32"/>
     <use x="1225.408203" xlink:href="#DejaVuSans-84"/>
     <use x="1286.445312" xlink:href="#DejaVuSans-105"/>
     <use x="1314.228516" xlink:href="#DejaVuSans-109"/>
     <use x="1411.640625" xlink:href="#DejaVuSans-101"/>
    </g>
   </g>
   <g id="legend_1">
    <g id="patch_7">
     <path d="M 61 101.2725 
L 193.070312 101.2725 
Q 195.070312 101.2725 195.070312 99.2725 
L 195.070312 41.56 
Q 195.070312 39.56 193.070312 39.56 
L 61 39.56 
Q 59 39.56 59 41.56 
L 59 99.2725 
Q 59 101.2725 61 101.2725 
z
" style="fill:#ffffff;opacity:0.8;stroke:#cccccc;stroke-linejoin:miter;"/>
    </g>
    <g id="line2d_20">
     <path d="M 63 47.658437 
L 83 47.658437 
" style="fill:none;stroke:#1f77b4;stroke-linecap:square;stroke-width:1.5;"/>
    </g>
    <g id="line2d_21"/>
    <g id="text_19">
     <!-- Seven Agents -->
     <defs>
      <path d="M 34.1875 63.1875 
L 20.796875 26.90625 
L 47.609375 26.90625 
z
M 28.609375 72.90625 
L 39.796875 72.90625 
L 67.578125 0 
L 57.328125 0 
L 50.6875 18.703125 
L 17.828125 18.703125 
L 11.1875 0 
L 0.78125 0 
z
" id="DejaVuSans-65"/>
      <path d="M 45.40625 27.984375 
Q 45.40625 37.75 41.375 43.109375 
Q 37.359375 48.484375 30.078125 48.484375 
Q 22.859375 48.484375 18.828125 43.109375 
Q 14.796875 37.75 14.796875 27.984375 
Q 14.796875 18.265625 18.828125 12.890625 
Q 22.859375 7.515625 30.078125 7.515625 
Q 37.359375 7.515625 41.375 12.890625 
Q 45.40625 18.265625 45.40625 27.984375 
z
M 54.390625 6.78125 
Q 54.390625 -7.171875 48.1875 -13.984375 
Q 42 -20.796875 29.203125 -20.796875 
Q 24.46875 -20.796875 20.265625 -20.09375 
Q 16.0625 -19.390625 12.109375 -17.921875 
L 12.109375 -9.1875 
Q 16.0625 -11.328125 19.921875 -12.34375 
Q 23.78125 -13.375 27.78125 -13.375 
Q 36.625 -13.375 41.015625 -8.765625 
Q 45.40625 -4.15625 45.40625 5.171875 
L 45.40625 9.625 
Q 42.625 4.78125 38.28125 2.390625 
Q 33.9375 0 27.875 0 
Q 17.828125 0 11.671875 7.65625 
Q 5.515625 15.328125 5.515625 27.984375 
Q 5.515625 40.671875 11.671875 48.328125 
Q 17.828125 56 27.875 56 
Q 33.9375 56 38.28125 53.609375 
Q 42.625 51.21875 45.40625 46.390625 
L 45.40625 54.6875 
L 54.390625 54.6875 
z
" id="DejaVuSans-103"/>
     </defs>
     <g transform="translate(91 51.158437)scale(0.1 -0.1)">
      <use xlink:href="#DejaVuSans-83"/>
      <use x="63.476562" xlink:href="#DejaVuSans-101"/>
      <use x="125" xlink:href="#DejaVuSans-118"/>
      <use x="184.179688" xlink:href="#DejaVuSans-101"/>
      <use x="245.703125" xlink:href="#DejaVuSans-110"/>
      <use x="309.082031" xlink:href="#DejaVuSans-32"/>
      <use x="340.869141" xlink:href="#DejaVuSans-65"/>
      <use x="409.277344" xlink:href="#DejaVuSans-103"/>
      <use x="472.753906" xlink:href="#DejaVuSans-101"/>
      <use x="534.277344" xlink:href="#DejaVuSans-110"/>
      <use x="597.65625" xlink:href="#DejaVuSans-116"/>
      <use x="636.865234" xlink:href="#DejaVuSans-115"/>
     </g>
    </g>
    <g id="line2d_22">
     <path d="M 63 62.336562 
L 83 62.336562 
" style="fill:none;stroke:#ff7f0e;stroke-linecap:square;stroke-width:1.5;"/>
    </g>
    <g id="line2d_23"/>
    <g id="text_20">
     <!-- Single Agent -->
     <g transform="translate(91 65.836562)scale(0.1 -0.1)">
      <use xlink:href="#DejaVuSans-83"/>
      <use x="63.476562" xlink:href="#DejaVuSans-105"/>
      <use x="91.259766" xlink:href="#DejaVuSans-110"/>
      <use x="154.638672" xlink:href="#DejaVuSans-103"/>
      <use x="218.115234" xlink:href="#DejaVuSans-108"/>
      <use x="245.898438" xlink:href="#DejaVuSans-101"/>
      <use x="307.421875" xlink:href="#DejaVuSans-32"/>
      <use x="339.208984" xlink:href="#DejaVuSans-65"/>
      <use x="407.617188" xlink:href="#DejaVuSans-103"/>
      <use x="471.09375" xlink:href="#DejaVuSans-101"/>
      <use x="532.617188" xlink:href="#DejaVuSans-110"/>
      <use x="595.996094" xlink:href="#DejaVuSans-116"/>
     </g>
    </g>
    <g id="line2d_24">
     <path d="M 63 77.014687 
L 83 77.014687 
" style="fill:none;stroke:#2ca02c;stroke-linecap:square;stroke-width:1.5;"/>
    </g>
    <g id="line2d_25"/>
    <g id="text_21">
     <!-- Twelve Agents -->
     <g transform="translate(91 80.514687)scale(0.1 -0.1)">
      <use xlink:href="#DejaVuSans-84"/>
      <use x="60.833984" xlink:href="#DejaVuSans-119"/>
      <use x="142.621094" xlink:href="#DejaVuSans-101"/>
      <use x="204.144531" xlink:href="#DejaVuSans-108"/>
      <use x="231.927734" xlink:href="#DejaVuSans-118"/>
      <use x="291.107422" xlink:href="#DejaVuSans-101"/>
      <use x="352.630859" xlink:href="#DejaVuSans-32"/>
      <use x="384.417969" xlink:href="#DejaVuSans-65"/>
      <use x="452.826172" xlink:href="#DejaVuSans-103"/>
      <use x="516.302734" xlink:href="#DejaVuSans-101"/>
      <use x="577.826172" xlink:href="#DejaVuSans-110"/>
      <use x="641.205078" xlink:href="#DejaVuSans-116"/>
      <use x="680.414062" xlink:href="#DejaVuSans-115"/>
     </g>
    </g>
    <g id="line2d_26">
     <path d="M 63 91.692813 
L 83 91.692813 
" style="fill:none;stroke:#d62728;stroke-linecap:square;stroke-width:1.5;"/>
    </g>
    <g id="line2d_27"/>
    <g id="text_22">
     <!-- Twenty Four Agents -->
     <defs>
      <path d="M 32.171875 -5.078125 
Q 28.375 -14.84375 24.75 -17.8125 
Q 21.140625 -20.796875 15.09375 -20.796875 
L 7.90625 -20.796875 
L 7.90625 -13.28125 
L 13.1875 -13.28125 
Q 16.890625 -13.28125 18.9375 -11.515625 
Q 21 -9.765625 23.484375 -3.21875 
L 25.09375 0.875 
L 2.984375 54.6875 
L 12.5 54.6875 
L 29.59375 11.921875 
L 46.6875 54.6875 
L 56.203125 54.6875 
z
" id="DejaVuSans-121"/>
      <path d="M 9.8125 72.90625 
L 51.703125 72.90625 
L 51.703125 64.59375 
L 19.671875 64.59375 
L 19.671875 43.109375 
L 48.578125 43.109375 
L 48.578125 34.8125 
L 19.671875 34.8125 
L 19.671875 0 
L 9.8125 0 
z
" id="DejaVuSans-70"/>
     </defs>
     <g transform="translate(91 95.192813)scale(0.1 -0.1)">
      <use xlink:href="#DejaVuSans-84"/>
      <use x="60.833984" xlink:href="#DejaVuSans-119"/>
      <use x="142.621094" xlink:href="#DejaVuSans-101"/>
      <use x="204.144531" xlink:href="#DejaVuSans-110"/>
      <use x="267.523438" xlink:href="#DejaVuSans-116"/>
      <use x="306.732422" xlink:href="#DejaVuSans-121"/>
      <use x="365.912109" xlink:href="#DejaVuSans-32"/>
      <use x="397.699219" xlink:href="#DejaVuSans-70"/>
      <use x="455.171875" xlink:href="#DejaVuSans-111"/>
      <use x="516.353516" xlink:href="#DejaVuSans-117"/>
      <use x="579.732422" xlink:href="#DejaVuSans-114"/>
      <use x="620.845703" xlink:href="#DejaVuSans-32"/>
      <use x="652.632812" xlink:href="#DejaVuSans-65"/>
      <use x="721.041016" xlink:href="#DejaVuSans-103"/>
      <use x="784.517578" xlink:href="#DejaVuSans-101"/>
      <use x="846.041016" xlink:href="#DejaVuSans-110"/>
      <use x="909.419922" xlink:href="#DejaVuSans-116"/>
      <use x="948.628906" xlink:href="#DejaVuSans-115"/>
     </g>
    </g>
   </g>
  </g>
 </g>
 <defs>
  <clipPath id="pe59094609f">
   <rect height="217.44" width="334.8" x="54" y="34.56"/>
  </clipPath>
 </defs>
</svg>
